<?xml version="1.0" encoding="UTF-8" standalone="no"?>
<svg
   id="visual"
   viewBox="0 0 769 300"
   width="769"
   height="300"
   version="1.1"
   sodipodi:docname="layered-steps-haikei.svg"
   inkscape:version="1.2.2 (b0a8486541, 2022-12-01)"
   xmlns:inkscape="http://www.inkscape.org/namespaces/inkscape"
   xmlns:sodipodi="http://sodipodi.sourceforge.net/DTD/sodipodi-0.dtd"
   xmlns="http://www.w3.org/2000/svg"
   xmlns:svg="http://www.w3.org/2000/svg">
  <defs
     id="defs25160" />
  <sodipodi:namedview
     id="namedview25158"
     pagecolor="#ffffff"
     bordercolor="#cccccc"
     borderopacity="1"
     inkscape:showpageshadow="0"
     inkscape:pageopacity="1"
     inkscape:pagecheckerboard="0"
     inkscape:deskcolor="#d1d1d1"
     showgrid="false"
     inkscape:zoom="0.92555556"
     inkscape:cx="284.69388"
     inkscape:cy="184.7539"
     inkscape:window-width="1920"
     inkscape:window-height="1019"
     inkscape:window-x="1920"
     inkscape:window-y="151"
     inkscape:window-maximized="1"
     inkscape:current-layer="visual" />
  <rect
     x="0"
     y="0"
     width="769"
     height="300"
     fill="#001122"
     id="rect25131"
     style="stroke-width:0.924362" />
  <path
     d="m 158,300 h 17 v -18 h 45 v -17 h -25 v -18 h -32 v -18 h 56 v -17 h -32 v -18 h -33 v -18 h 33 v -17 h -26 v -18 h 26 v -17 h 19 V 106 H 180 V 88 h 1 V 71 h 8 V 53 h -5 V 35 H 152 V 18 h 65 V 0 h 552 v 18 0 17 0 18 0 18 0 17 0 18 0 18 0 17 0 18 0 17 0 18 0 18 0 17 0 18 0 18 0 17 0 18 0 z"
     fill="#001122"
     id="path25133" />
  <path
     d="m 204,300 v 0 -18 h 62 v -17 h -7 v -18 h -36 v -18 h 43 v -17 h -39 v -18 h 34 v -18 h -51 v -17 h 45 v -18 h -3 v -17 h -43 v -18 h 3 V 88 h -7 V 71 h 4 V 53 h 42 V 35 H 210 V 18 h 32 V 0 h 527 v 18 0 17 0 18 0 18 0 17 0 18 0 18 0 17 0 18 0 17 0 18 0 18 0 17 0 18 0 18 0 17 0 18 0 z"
     fill="#131d36"
     id="path25135" />
  <path
     d="m 282,300 h 5 v -18 h 29 v -17 h -36 v -18 h 29 v -18 h -16 v -17 h 14 v -18 h -60 v -18 h 71 v -17 h -39 v -18 h -4 v -17 h 24 v -18 h -8 V 88 H 268 V 71 h 35 V 53 H 265 V 35 h -3 V 18 h 36 V 0 h 471 v 18 0 17 0 18 0 18 0 17 0 18 0 18 0 17 0 18 0 17 0 18 0 18 0 17 0 18 0 18 0 17 0 18 0 z"
     fill="#2c2749"
     id="path25137" />
  <path
     d="m 343,300 h 29 v -18 h -60 v -17 h 53 v -18 h -36 v -18 h -19 v -17 h 45 v -18 h 17 v -18 h -17 v -17 h -49 v -18 h 1 v -17 h -4 v -18 h 3 V 88 h 65 V 71 H 304 V 53 h 61 V 35 H 322 V 18 h 12 V 0 h 435 v 18 0 17 0 18 0 18 0 17 0 18 0 18 0 17 0 18 0 17 0 18 0 18 0 17 0 18 0 18 0 17 0 18 0 z"
     fill="#493059"
     id="path25139" />
  <path
     d="m 378,300 h 13 v -18 h -37 v -17 h 42 v -18 h -16 v -18 h -4 v -17 h 13 v -18 h 22 v -18 h -52 v -17 h -8 v -18 h 24 v -17 h -18 v -18 h -6 V 88 h 39 V 71 h -3 V 53 H 359 V 35 h 43 V 18 h -8 V 0 h 375 v 18 0 17 0 18 0 18 0 17 0 18 0 18 0 17 0 18 0 17 0 18 0 18 0 17 0 18 0 18 0 17 0 18 0 z"
     fill="#683764"
     id="path25141" />
  <path
     d="m 428,300 h -1 v -18 h -32 v -17 h 38 v -18 h 9 v -18 h -27 v -17 h -7 v -18 h -14 v -18 h 48 v -17 h 2 v -18 h -2 v -17 h -11 v -18 h 23 V 88 H 396 V 71 h 53 V 53 h 1 V 35 H 422 V 18 h 21 V 0 h 326 v 18 0 17 0 18 0 18 0 17 0 18 0 18 0 17 0 18 0 17 0 18 0 18 0 17 0 18 0 18 0 17 0 18 0 z"
     fill="#893e6a"
     id="path25143" />
  <path
     d="m 465,300 h 11 v -18 h -25 v -17 h 28 v -18 h 8 v -18 h -39 v -17 h 59 v -18 h -24 v -18 h 1 v -17 h -24 v -18 h -2 v -17 h -17 v -18 h 46 V 88 h 23 V 71 H 493 V 53 H 447 V 35 h 43 V 18 h 27 V 0 h 252 v 18 0 17 0 18 0 18 0 17 0 18 0 18 0 17 0 18 0 17 0 18 0 18 0 17 0 18 0 18 0 17 0 18 0 z"
     fill="#a9476b"
     id="path25145" />
  <path
     d="m 561,300 h -45 v -18 h 21 v -17 h -45 v -18 h 40 v -18 h 10 v -17 h -34 v -18 h 11 v -18 h -7 v -17 h 15 v -18 h 2 v -17 h -5 v -18 h 39 V 88 H 536 V 71 H 500 V 53 h 65 V 35 H 531 V 18 h 10 V 0 h 228 v 18 0 17 0 18 0 18 0 17 0 18 0 18 0 17 0 18 0 17 0 18 0 18 0 17 0 18 0 18 0 17 0 18 0 z"
     fill="#c55366"
     id="path25147" />
  <path
     d="m 610,300 h 1 v -18 h -22 v -17 h -38 v -18 h -2 v -18 h -10 v -17 h 27 v -18 h -7 v -18 h 28 v -17 h -2 v -18 h -1 v -17 h -10 v -18 h 27 V 88 h 11 V 71 H 593 V 53 H 564 V 35 H 549 V 18 h 21 V 0 h 199 v 18 0 17 0 18 0 18 0 17 0 18 0 18 0 17 0 18 0 17 0 18 0 18 0 17 0 18 0 18 0 17 0 18 0 z"
     fill="#dd645e"
     id="path25149" />
  <path
     d="m 652,300 h 10 v -18 h -12 v -17 h -49 v -18 h 33 v -18 h 3 v -17 h -48 v -18 h 7 v -18 h 23 v -17 h 10 v -18 h 27 v -17 h -53 v -18 h 51 V 88 H 629 V 71 H 618 V 53 h 9 V 35 h 27 V 18 h -7 V 0 h 122 v 18 0 17 0 18 0 18 0 17 0 18 0 18 0 17 0 18 0 17 0 18 0 18 0 17 0 18 0 18 0 17 0 18 0 z"
     fill="#ef7953"
     id="path25151" />
  <path
     d="m 703,300 h -1 v -18 h -42 v -17 0 -18 h 36 v -18 h 5 v -17 h 8 v -18 h -53 v -18 h 37 v -17 h 10 v -18 h -32 v -17 h 1 V 106 H 653 V 88 h 52 V 71 H 687 V 53 H 657 V 35 H 639 V 18 h 39 V 0 h 91 v 18 0 17 0 18 0 18 0 17 0 18 0 18 0 17 0 18 0 17 0 18 0 18 0 17 0 18 0 18 0 17 0 18 0 z"
     fill="#f99347"
     id="path25153" />
  <path
     d="m 756,300 h -27 v -18 h -4 v -17 h 9 v -18 h 20 v -18 h -57 v -17 h 46 v -18 h -1 v -18 h -47 v -17 h 19 v -18 h 12 V 124 H 716 V 106 H 696 V 88 H 686 V 71 h 7 V 53 h 60 V 35 H 740 V 18 18 0 h 29 v 18 0 17 0 18 0 18 0 17 0 18 0 18 0 17 0 18 0 17 0 18 0 18 0 17 0 18 0 18 0 17 0 18 0 z"
     fill="#fcaf3c"
     id="path25155" />
</svg>
