<?xml version="1.0" encoding="UTF-8" standalone="no"?>
<svg
   id="visual"
   viewBox="0 0 900 300"
   width="900"
   height="300"
   version="1.1"
   sodipodi:docname="layered-waves-haikei.svg"
   inkscape:version="1.2.2 (b0a8486541, 2022-12-01)"
   xmlns:inkscape="http://www.inkscape.org/namespaces/inkscape"
   xmlns:sodipodi="http://sodipodi.sourceforge.net/DTD/sodipodi-0.dtd"
   xmlns="http://www.w3.org/2000/svg"
   xmlns:svg="http://www.w3.org/2000/svg">
  <defs
     id="defs1433" />
  <sodipodi:namedview
     id="namedview1431"
     pagecolor="#ffffff"
     bordercolor="#000000"
     borderopacity="0.25"
     inkscape:showpageshadow="2"
     inkscape:pageopacity="0.0"
     inkscape:pagecheckerboard="0"
     inkscape:deskcolor="#d1d1d1"
     showgrid="false"
     inkscape:zoom="0.78614848"
     inkscape:cx="438.21238"
     inkscape:cy="118.29826"
     inkscape:window-width="1916"
     inkscape:window-height="1048"
     inkscape:window-x="0"
     inkscape:window-y="28"
     inkscape:window-maximized="1"
     inkscape:current-layer="visual" />
  <rect
     x="0"
     y="0"
     width="900"
     height="300"
     fill="#001220"
     id="rect1404" />
  <path
     d="m 0,100.86592 10.7,2.76047 c 10.6,2.76047 32,8.28141 53.5,14.0784 21.5,5.65896 43.1,11.732 64.6,14.63049 21.5,3.03652 42.9,3.03652 64.2,-1.79431 21.3,-4.83082 42.7,-14.49246 64,-19.04724 21.3,-4.6928 42.7,-4.1407 64.2,1.38024 21.5,5.52094 43.1,16.01072 64.6,12.83618 21.5,-3.17454 42.9,-20.28945 64.2,-28.294816 21.3,-8.005363 42.7,-7.177222 64.2,-4.140705 21.5,3.036517 43.1,8.005361 64.6,11.455951 21.5,3.45059 42.9,5.38292 64.2,4.1407 21.3,-1.10418 42.7,-5.24489 64,-3.17454 21.3,2.07036 42.7,10.35177 64.2,13.52631 21.5,3.31256 43.1,1.38023 64.6,-0.41407 21.5,-1.79431 42.9,-3.72664 53.5,-4.55478 L 900,113.28804 V 301 h -10.7 c -10.6,0 -32,0 -53.5,0 -21.5,0 -43.1,0 -64.6,0 -21.5,0 -42.9,0 -64.2,0 -21.3,0 -42.7,0 -64,0 -21.3,0 -42.7,0 -64.2,0 -21.5,0 -43.1,0 -64.6,0 -21.5,0 -42.9,0 -64.2,0 -21.3,0 -42.7,0 -64.2,0 -21.5,0 -43.1,0 -64.6,0 -21.5,0 -42.9,0 -64.2,0 -21.3,0 -42.7,0 -64,0 -21.3,0 -42.7,0 -64.2,0 -21.5,0 -43.1,0 -64.6,0 -21.5,0 -42.9,0 -53.5,0 H 0 Z"
     fill="#001122"
     id="path1406"
     style="stroke-width:1.17483" />
  <path
     d="m 0,151.93462 10.7,-0.41407 c 10.6,-0.5521 32,-1.38024 53.5,-6.76315 21.5,-5.2449 43.1,-14.90654 64.6,-16.01073 21.5,-1.24221 42.9,6.21106 64.2,4.1407 21.3,-2.07035 42.7,-13.66432 64,-18.63317 21.3,-5.10687 42.7,-3.72663 64.2,-0.96616 21.5,2.76047 43.1,6.90117 64.6,5.93501 21.5,-0.82814 42.9,-6.90118 64.2,-3.17454 21.3,3.72663 42.7,16.97689 64.2,18.35712 21.5,1.38024 43.1,-9.10955 64.6,-9.3856 21.5,-0.27604 42.9,9.9377 64.2,8.97153 21.3,-0.96616 42.7,-12.83618 64,-16.28677 21.3,-3.45059 42.7,1.51826 64.2,8.97153 21.5,7.31524 43.1,16.97689 64.6,20.70352 21.5,3.58861 42.9,1.38024 53.5,0.13803 L 900,146.41368 V 301 h -10.7 c -10.6,0 -32,0 -53.5,0 -21.5,0 -43.1,0 -64.6,0 -21.5,0 -42.9,0 -64.2,0 -21.3,0 -42.7,0 -64,0 -21.3,0 -42.7,0 -64.2,0 -21.5,0 -43.1,0 -64.6,0 -21.5,0 -42.9,0 -64.2,0 -21.3,0 -42.7,0 -64.2,0 -21.5,0 -43.1,0 -64.6,0 -21.5,0 -42.9,0 -64.2,0 -21.3,0 -42.7,0 -64,0 -21.3,0 -42.7,0 -64.2,0 -21.5,0 -43.1,0 -64.6,0 -21.5,0 -42.9,0 -53.5,0 H 0 Z"
     fill="#131d36"
     id="path1408"
     style="stroke-width:1.17483" />
  <path
     d="m 0,135.3718 10.7,2.3464 c 10.6,2.20837 32,6.90117 53.5,4.96884 21.5,-1.7943 43.1,-10.07571 64.6,-8.28141 21.5,1.93233 42.9,13.80235 64.2,14.0784 21.3,0.27605 42.7,-11.31793 64,-14.21642 21.3,-3.03652 42.7,2.48442 64.2,5.93501 21.5,3.45059 43.1,4.83082 64.6,7.17722 21.5,2.20838 42.9,5.52094 64.2,7.31525 21.3,1.7943 42.7,2.3464 64.2,-2.07036 21.5,-4.41675 43.1,-13.5263 64.6,-18.63317 21.5,-5.10687 42.9,-5.93501 64.2,-5.79699 21.3,0.27605 42.7,1.65629 64,2.76047 21.3,1.24222 42.7,2.07036 64.2,-0.13802 21.5,-2.3464 43.1,-7.86734 64.6,-3.31256 21.5,4.6928 42.9,19.32329 53.5,26.77656 l 10.7,7.31524 V 301 h -10.7 c -10.6,0 -32,0 -53.5,0 -21.5,0 -43.1,0 -64.6,0 -21.5,0 -42.9,0 -64.2,0 -21.3,0 -42.7,0 -64,0 -21.3,0 -42.7,0 -64.2,0 -21.5,0 -43.1,0 -64.6,0 -21.5,0 -42.9,0 -64.2,0 -21.3,0 -42.7,0 -64.2,0 -21.5,0 -43.1,0 -64.6,0 -21.5,0 -42.9,0 -64.2,0 -21.3,0 -42.7,0 -64,0 -21.3,0 -42.7,0 -64.2,0 -21.5,0 -43.1,0 -64.6,0 -21.5,0 -42.9,0 -53.5,0 H 0 Z"
     fill="#2c2749"
     id="path1410"
     style="stroke-width:1.17483" />
  <path
     d="m 0,147.79391 10.7,-0.27604 c 10.6,-0.13803 32,-0.69012 53.5,-3.17455 21.5,-2.48442 43.1,-7.17722 64.6,-4.41675 21.5,2.76047 42.9,12.97421 64.2,20.97957 21.3,8.00537 42.7,14.0784 64,13.80236 21.3,-0.27605 42.7,-6.62513 64.2,-13.52631 21.5,-6.90117 43.1,-14.35444 64.6,-12.00804 21.5,2.3464 42.9,14.21642 64.2,21.11759 21.3,6.90118 42.7,8.83351 64.2,8.97153 21.5,0.27605 43.1,-1.10419 64.6,-6.21106 21.5,-4.96884 42.9,-13.80235 64.2,-20.84155 21.3,-7.17722 42.7,-12.69816 64,-14.35444 21.3,-1.51826 42.7,0.69012 64.2,5.79699 21.5,5.10687 43.1,12.83618 64.6,17.25293 21.5,4.41676 42.9,5.2449 53.5,5.79699 L 900,167.1172 V 301 h -10.7 c -10.6,0 -32,0 -53.5,0 -21.5,0 -43.1,0 -64.6,0 -21.5,0 -42.9,0 -64.2,0 -21.3,0 -42.7,0 -64,0 -21.3,0 -42.7,0 -64.2,0 -21.5,0 -43.1,0 -64.6,0 -21.5,0 -42.9,0 -64.2,0 -21.3,0 -42.7,0 -64.2,0 -21.5,0 -43.1,0 -64.6,0 -21.5,0 -42.9,0 -64.2,0 -21.3,0 -42.7,0 -64,0 -21.3,0 -42.7,0 -64.2,0 -21.5,0 -43.1,0 -64.6,0 -21.5,0 -42.9,0 -53.5,0 H 0 Z"
     fill="#493059"
     id="path1412"
     style="stroke-width:1.17483" />
  <path
     d="m 0,153.31485 10.7,5.10687 c 10.6,4.96885 32,15.18259 53.5,16.28678 21.5,1.10418 43.1,-6.62513 64.6,-12.42212 21.5,-5.79699 42.9,-9.3856 64.2,-5.79699 21.3,3.72664 42.7,14.76852 64,21.39365 21.3,6.76315 42.7,8.97152 64.2,5.52094 21.5,-3.45059 43.1,-12.56014 64.6,-13.94038 21.5,-1.38023 42.9,4.96885 64.2,6.90118 21.3,1.7943 42.7,-0.96617 64.2,0.13802 21.5,1.24221 43.1,6.21106 64.6,3.03652 21.5,-3.17454 42.9,-14.76852 64.2,-16.56282 21.3,-1.79431 42.7,5.93501 64,8.55745 21.3,2.48443 42.7,-0.27604 64.2,-1.38023 21.5,-1.24221 43.1,-0.69012 64.6,0.82814 21.5,1.65628 42.9,4.41675 53.5,5.79699 l 10.7,1.38023 V 301 h -10.7 c -10.6,0 -32,0 -53.5,0 -21.5,0 -43.1,0 -64.6,0 -21.5,0 -42.9,0 -64.2,0 -21.3,0 -42.7,0 -64,0 -21.3,0 -42.7,0 -64.2,0 -21.5,0 -43.1,0 -64.6,0 -21.5,0 -42.9,0 -64.2,0 -21.3,0 -42.7,0 -64.2,0 -21.5,0 -43.1,0 -64.6,0 -21.5,0 -42.9,0 -64.2,0 -21.3,0 -42.7,0 -64,0 -21.3,0 -42.7,0 -64.2,0 -21.5,0 -43.1,0 -64.6,0 -21.5,0 -42.9,0 -53.5,0 H 0 Z"
     fill="#683764"
     id="path1414"
     style="stroke-width:1.17483" />
  <path
     d="m 0,180.91955 10.7,4.55478 c 10.6,4.6928 32,13.80235 53.5,14.76851 21.5,0.96617 43.1,-6.4871 64.6,-9.93769 21.5,-3.45059 42.9,-2.89849 64.2,-3.17454 21.3,-0.27605 42.7,-1.10419 64,1.10419 21.3,2.3464 42.7,7.86734 64.2,9.52362 21.5,1.51826 43.1,-0.69012 64.6,-4.00268 21.5,-3.17454 42.9,-7.31525 64.2,-9.3856 21.3,-2.07035 42.7,-2.07035 64.2,-1.65628 21.5,0.55209 43.1,1.38023 64.6,-0.41407 21.5,-1.79431 42.9,-6.48711 64.2,-8.00537 21.3,-1.65628 42.7,-0.27604 64,2.48443 21.3,2.76047 42.7,6.90117 64.2,10.07571 21.5,3.31257 43.1,5.52094 64.6,3.72664 21.5,-1.79431 42.9,-7.86734 53.5,-10.76584 L 900,176.77885 V 301 h -10.7 c -10.6,0 -32,0 -53.5,0 -21.5,0 -43.1,0 -64.6,0 -21.5,0 -42.9,0 -64.2,0 -21.3,0 -42.7,0 -64,0 -21.3,0 -42.7,0 -64.2,0 -21.5,0 -43.1,0 -64.6,0 -21.5,0 -42.9,0 -64.2,0 -21.3,0 -42.7,0 -64.2,0 -21.5,0 -43.1,0 -64.6,0 -21.5,0 -42.9,0 -64.2,0 -21.3,0 -42.7,0 -64,0 -21.3,0 -42.7,0 -64.2,0 -21.5,0 -43.1,0 -64.6,0 -21.5,0 -42.9,0 -53.5,0 H 0 Z"
     fill="#893e6a"
     id="path1416"
     style="stroke-width:1.17483" />
  <path
     d="m 0,186.44049 10.7,0.27605 c 10.6,0.13802 32,0.69012 53.5,6.34908 21.5,5.79699 43.1,16.83887 64.6,17.52899 21.5,0.69011 42.9,-8.97153 64.2,-12.14607 21.3,-3.31257 42.7,0 64,0.41407 21.3,0.41407 42.7,-1.79431 64.2,-1.79431 21.5,0 43.1,2.20838 64.6,0.69012 21.5,-1.65628 42.9,-7.17722 64.2,-7.45327 21.3,-0.13802 42.7,4.83082 64.2,9.24758 21.5,4.41675 43.1,8.00536 64.6,8.69548 21.5,0.69011 42.9,-1.51826 64.2,-3.86466 21.3,-2.3464 42.7,-4.55478 64,-7.31525 21.3,-2.76047 42.7,-6.07303 64.2,-6.07303 21.5,0 43.1,3.31256 64.6,5.10687 21.5,1.7943 42.9,2.3464 53.5,2.48442 l 10.7,0.27605 V 301 h -10.7 c -10.6,0 -32,0 -53.5,0 -21.5,0 -43.1,0 -64.6,0 -21.5,0 -42.9,0 -64.2,0 -21.3,0 -42.7,0 -64,0 -21.3,0 -42.7,0 -64.2,0 -21.5,0 -43.1,0 -64.6,0 -21.5,0 -42.9,0 -64.2,0 -21.3,0 -42.7,0 -64.2,0 -21.5,0 -43.1,0 -64.6,0 -21.5,0 -42.9,0 -64.2,0 -21.3,0 -42.7,0 -64,0 -21.3,0 -42.7,0 -64.2,0 -21.5,0 -43.1,0 -64.6,0 -21.5,0 -42.9,0 -53.5,0 H 0 Z"
     fill="#a9476b"
     id="path1418"
     style="stroke-width:1.17483" />
  <path
     d="m 0,219.56613 10.7,-1.7943 c 10.6,-1.93233 32,-5.52094 53.5,-4.41675 21.5,1.10418 43.1,7.17722 64.6,9.66164 21.5,2.48442 42.9,1.65628 64.2,-0.27605 21.3,-1.7943 42.7,-4.55477 64,-4.96884 21.3,-0.5521 42.7,1.38023 64.2,0.82814 21.5,-0.41407 43.1,-3.17454 64.6,-2.76047 21.5,0.55209 42.9,4.1407 64.2,2.62245 21.3,-1.65629 42.7,-8.55746 64.2,-7.45327 21.5,1.24221 43.1,10.35176 64.6,14.07839 21.5,3.72664 42.9,1.79431 64.2,-2.48442 21.3,-4.41675 42.7,-11.31793 64,-14.49247 21.3,-3.31256 42.7,-2.76047 64.2,-0.55209 21.5,2.3464 43.1,6.4871 64.6,11.31793 21.5,4.83082 42.9,10.35176 53.5,13.11223 l 10.7,2.76047 V 301 h -10.7 c -10.6,0 -32,0 -53.5,0 -21.5,0 -43.1,0 -64.6,0 -21.5,0 -42.9,0 -64.2,0 -21.3,0 -42.7,0 -64,0 -21.3,0 -42.7,0 -64.2,0 -21.5,0 -43.1,0 -64.6,0 -21.5,0 -42.9,0 -64.2,0 -21.3,0 -42.7,0 -64.2,0 -21.5,0 -43.1,0 -64.6,0 -21.5,0 -42.9,0 -64.2,0 -21.3,0 -42.7,0 -64,0 -21.3,0 -42.7,0 -64.2,0 -21.5,0 -43.1,0 -64.6,0 -21.5,0 -42.9,0 -53.5,0 H 0 Z"
     fill="#c55366"
     id="path1420"
     style="stroke-width:1.17483" />
  <path
     d="m 0,231.98825 10.7,2.3464 c 10.6,2.20837 32,6.90117 53.5,8.28141 21.5,1.38023 43.1,-0.5521 64.6,-4.6928 21.5,-4.14071 42.9,-10.48979 64.2,-9.10955 21.3,1.38023 42.7,10.48978 64,11.87002 21.3,1.38023 42.7,-4.96885 64.2,-5.52094 21.5,-0.41407 43.1,5.10687 64.6,5.52094 21.5,0.55209 42.9,-4.14071 64.2,-4.55478 21.3,-0.41407 42.7,3.17454 64.2,0.96617 21.5,-2.3464 43.1,-10.62781 64.6,-11.04188 21.5,-0.5521 42.9,6.90117 64.2,7.72931 21.3,0.96617 42.7,-4.55477 64,-7.59129 21.3,-2.89849 42.7,-3.45059 64.2,-3.45059 21.5,0 43.1,0.5521 64.6,1.65629 21.5,1.10418 42.9,3.03651 53.5,3.86465 l 10.7,0.96617 V 301 h -10.7 c -10.6,0 -32,0 -53.5,0 -21.5,0 -43.1,0 -64.6,0 -21.5,0 -42.9,0 -64.2,0 -21.3,0 -42.7,0 -64,0 -21.3,0 -42.7,0 -64.2,0 -21.5,0 -43.1,0 -64.6,0 -21.5,0 -42.9,0 -64.2,0 -21.3,0 -42.7,0 -64.2,0 -21.5,0 -43.1,0 -64.6,0 -21.5,0 -42.9,0 -64.2,0 -21.3,0 -42.7,0 -64,0 -21.3,0 -42.7,0 -64.2,0 -21.5,0 -43.1,0 -64.6,0 -21.5,0 -42.9,0 -53.5,0 H 0 Z"
     fill="#dd645e"
     id="path1422"
     style="stroke-width:1.17483" />
  <path
     d="m 0,244.41036 10.7,-1.65628 c 10.6,-1.51826 32,-4.83082 53.5,-3.45059 21.5,1.38024 43.1,7.45327 64.6,11.732 21.5,4.41675 42.9,7.17722 64.2,5.38292 21.3,-1.93233 42.7,-8.28141 64,-8.55746 21.3,-0.27605 42.7,5.79699 64.2,7.86734 21.5,2.07035 43.1,0.13802 64.6,-1.24221 21.5,-1.38024 42.9,-2.20838 64.2,-4.83082 21.3,-2.48443 42.7,-6.62513 64.2,-6.90118 21.5,-0.13802 43.1,3.45059 64.6,4.6928 21.5,1.10419 42.9,-0.27605 64.2,-0.69012 21.3,-0.55209 42.7,0 64,0.69012 21.3,0.69012 42.7,1.51826 64.2,3.17454 21.5,1.65628 43.1,3.86466 64.6,5.10687 21.5,1.10419 42.9,1.10419 53.5,1.10419 H 900 V 301 h -10.7 c -10.6,0 -32,0 -53.5,0 -21.5,0 -43.1,0 -64.6,0 -21.5,0 -42.9,0 -64.2,0 -21.3,0 -42.7,0 -64,0 -21.3,0 -42.7,0 -64.2,0 -21.5,0 -43.1,0 -64.6,0 -21.5,0 -42.9,0 -64.2,0 -21.3,0 -42.7,0 -64.2,0 -21.5,0 -43.1,0 -64.6,0 -21.5,0 -42.9,0 -64.2,0 -21.3,0 -42.7,0 -64,0 -21.3,0 -42.7,0 -64.2,0 -21.5,0 -43.1,0 -64.6,0 -21.5,0 -42.9,0 -53.5,0 H 0 Z"
     fill="#ef7953"
     id="path1424"
     style="stroke-width:1.17483" />
  <path
     d="m 0,273.3953 10.7,0.27605 c 10.6,0.13802 32,0.69011 53.5,-2.62245 21.5,-3.17454 43.1,-10.07572 64.6,-12.56014 21.5,-2.62245 42.9,-0.69012 64.2,2.07035 21.3,2.76047 42.7,6.34908 64,7.0392 21.3,0.69012 42.7,-1.51826 64.2,-3.45059 21.5,-1.7943 43.1,-3.17454 64.6,-2.48442 21.5,0.69012 42.9,3.45059 64.2,3.45059 21.3,0 42.7,-2.76047 64.2,-4.55478 21.5,-1.93233 43.1,-2.76047 64.6,-2.62244 21.5,0.27604 42.9,1.65628 64.2,3.72663 21.3,2.07035 42.7,4.83082 64,4.14071 21.3,-0.69012 42.7,-4.83083 64.2,-7.31525 21.5,-2.62245 43.1,-3.45059 64.6,-2.76047 21.5,0.69012 42.9,2.89849 53.5,4.14071 l 10.7,1.10418 V 301 h -10.7 c -10.6,0 -32,0 -53.5,0 -21.5,0 -43.1,0 -64.6,0 -21.5,0 -42.9,0 -64.2,0 -21.3,0 -42.7,0 -64,0 -21.3,0 -42.7,0 -64.2,0 -21.5,0 -43.1,0 -64.6,0 -21.5,0 -42.9,0 -64.2,0 -21.3,0 -42.7,0 -64.2,0 -21.5,0 -43.1,0 -64.6,0 -21.5,0 -42.9,0 -64.2,0 -21.3,0 -42.7,0 -64,0 -21.3,0 -42.7,0 -64.2,0 -21.5,0 -43.1,0 -64.6,0 -21.5,0 -42.9,0 -53.5,0 H 0 Z"
     fill="#f99347"
     id="path1426"
     style="stroke-width:1.17483" />
  <path
     d="m 0,278.91624 10.7,-0.69012 c 10.6,-0.69012 32,-2.07035 53.5,-0.96616 21.5,1.24221 43.1,4.83082 64.6,4.1407 21.5,-0.69011 42.9,-5.65896 64.2,-7.59129 21.3,-1.79431 42.7,-0.41407 64,2.3464 21.3,2.76047 42.7,6.90117 64.2,6.62513 21.5,-0.13803 43.1,-4.83082 64.6,-7.0392 21.5,-2.3464 42.9,-2.3464 64.2,-2.62245 21.3,-0.13802 42.7,-0.69012 64.2,1.38024 21.5,2.07035 43.1,6.76315 64.6,7.86734 21.5,1.10419 42.9,-1.10419 64.2,-2.07036 21.3,-0.96616 42.7,-0.41407 64,-0.27604 21.3,0.27604 42.7,0.27604 64.2,-1.10419 21.5,-1.38024 43.1,-4.14071 64.6,-3.03652 21.5,1.24221 42.9,6.21106 53.5,8.83351 l 10.7,2.48442 V 301 h -10.7 c -10.6,0 -32,0 -53.5,0 -21.5,0 -43.1,0 -64.6,0 -21.5,0 -42.9,0 -64.2,0 -21.3,0 -42.7,0 -64,0 -21.3,0 -42.7,0 -64.2,0 -21.5,0 -43.1,0 -64.6,0 -21.5,0 -42.9,0 -64.2,0 -21.3,0 -42.7,0 -64.2,0 -21.5,0 -43.1,0 -64.6,0 -21.5,0 -42.9,0 -64.2,0 -21.3,0 -42.7,0 -64,0 -21.3,0 -42.7,0 -64.2,0 -21.5,0 -43.1,0 -64.6,0 -21.5,0 -42.9,0 -53.5,0 H 0 Z"
     fill="#fcaf3c"
     id="path1428"
     style="stroke-width:1.17483" />
</svg>
