<?xml version="1.0" encoding="UTF-8" standalone="no"?>
<!-- Created with Inkscape (http://www.inkscape.org/) -->

<svg
   width="192.95929mm"
   height="31.058136mm"
   viewBox="0 0 192.95929 31.058136"
   version="1.1"
   id="svg5"
   inkscape:version="1.2.2 (b0a8486541, 2022-12-01)"
   sodipodi:docname="mckondo.svg"
   xmlns:inkscape="http://www.inkscape.org/namespaces/inkscape"
   xmlns:sodipodi="http://sodipodi.sourceforge.net/DTD/sodipodi-0.dtd"
   xmlns="http://www.w3.org/2000/svg"
   xmlns:svg="http://www.w3.org/2000/svg">
  <sodipodi:namedview
     id="namedview7"
     pagecolor="#ffffff"
     bordercolor="#000000"
     borderopacity="0.25"
     inkscape:showpageshadow="2"
     inkscape:pageopacity="0.0"
     inkscape:pagecheckerboard="0"
     inkscape:deskcolor="#d1d1d1"
     inkscape:document-units="mm"
     showgrid="false"
     inkscape:zoom="1.2705464"
     inkscape:cx="332.14058"
     inkscape:cy="158.98672"
     inkscape:window-width="1916"
     inkscape:window-height="1048"
     inkscape:window-x="0"
     inkscape:window-y="28"
     inkscape:window-maximized="1"
     inkscape:current-layer="layer1" />
  <defs
     id="defs2">
    <inkscape:path-effect
       effect="spiro"
       id="path-effect2067"
       is_visible="true"
       lpeversion="1" />
    <inkscape:path-effect
       effect="spiro"
       id="path-effect1898"
       is_visible="true"
       lpeversion="1" />
    <inkscape:path-effect
       effect="spiro"
       id="path-effect1779"
       is_visible="true"
       lpeversion="1" />
    <inkscape:path-effect
       effect="spiro"
       id="path-effect1775"
       is_visible="true"
       lpeversion="1" />
    <inkscape:path-effect
       effect="spiro"
       id="path-effect1483"
       is_visible="true"
       lpeversion="1" />
    <inkscape:path-effect
       effect="spiro"
       id="path-effect1469"
       is_visible="true"
       lpeversion="1" />
    <inkscape:path-effect
       effect="spiro"
       id="path-effect1465"
       is_visible="true"
       lpeversion="1" />
    <inkscape:path-effect
       effect="spiro"
       id="path-effect1443"
       is_visible="true"
       lpeversion="1" />
    <inkscape:path-effect
       effect="spiro"
       id="path-effect1439"
       is_visible="true"
       lpeversion="1" />
    <inkscape:path-effect
       effect="spiro"
       id="path-effect1379"
       is_visible="true"
       lpeversion="1" />
    <marker
       style="overflow:visible"
       id="RoundedArrow"
       refX="0"
       refY="0"
       orient="auto-start-reverse"
       inkscape:stockid="RoundedArrow"
       markerWidth="4.1350002"
       markerHeight="3.9973247"
       viewBox="0 0 6.1347524 5.9304951"
       inkscape:isstock="true"
       inkscape:collect="always"
       preserveAspectRatio="xMidYMid">
      <path
         transform="scale(0.7)"
         d="m -0.21114562,-4.1055728 6.42229122,3.21114561 a 1,1 90 0 1 0,1.78885438 L -0.21114562,4.1055728 A 1.236068,1.236068 31.717474 0 1 -2,3 v -6 a 1.236068,1.236068 148.28253 0 1 1.78885438,-1.1055728 z"
         style="fill:context-stroke;fill-rule:evenodd;stroke:none"
         id="path1367" />
    </marker>
    <inkscape:path-effect
       effect="spiro"
       id="path-effect1030"
       is_visible="true"
       lpeversion="1" />
    <inkscape:path-effect
       effect="spiro"
       id="path-effect963"
       is_visible="true"
       lpeversion="1" />
    <inkscape:path-effect
       effect="spiro"
       id="path-effect1898-6"
       is_visible="true"
       lpeversion="1" />
    <inkscape:path-effect
       effect="spiro"
       id="path-effect2067-5"
       is_visible="true"
       lpeversion="1" />
    <marker
       style="overflow:visible"
       id="RoundedArrow-9"
       refX="0"
       refY="0"
       orient="auto-start-reverse"
       inkscape:stockid="RoundedArrow"
       markerWidth="4.1350002"
       markerHeight="3.9973247"
       viewBox="0 0 6.1347524 5.9304951"
       inkscape:isstock="true"
       inkscape:collect="always"
       preserveAspectRatio="xMidYMid">
      <path
         transform="scale(0.7)"
         d="m -0.21114562,-4.1055728 6.42229122,3.21114561 a 1,1 90 0 1 0,1.78885438 L -0.21114562,4.1055728 A 1.236068,1.236068 31.717474 0 1 -2,3 v -6 a 1.236068,1.236068 148.28253 0 1 1.78885438,-1.1055728 z"
         style="fill:context-stroke;fill-rule:evenodd;stroke:none"
         id="path1367-1" />
    </marker>
    <inkscape:path-effect
       effect="spiro"
       id="path-effect1775-2"
       is_visible="true"
       lpeversion="1" />
    <marker
       style="overflow:visible"
       id="RoundedArrow-0"
       refX="0"
       refY="0"
       orient="auto-start-reverse"
       inkscape:stockid="RoundedArrow"
       markerWidth="4.1350002"
       markerHeight="3.9973247"
       viewBox="0 0 6.1347524 5.9304951"
       inkscape:isstock="true"
       inkscape:collect="always"
       preserveAspectRatio="xMidYMid">
      <path
         transform="scale(0.7)"
         d="m -0.21114562,-4.1055728 6.42229122,3.21114561 a 1,1 90 0 1 0,1.78885438 L -0.21114562,4.1055728 A 1.236068,1.236068 31.717474 0 1 -2,3 v -6 a 1.236068,1.236068 148.28253 0 1 1.78885438,-1.1055728 z"
         style="fill:context-stroke;fill-rule:evenodd;stroke:none"
         id="path1367-9" />
    </marker>
    <inkscape:path-effect
       effect="spiro"
       id="path-effect1775-3"
       is_visible="true"
       lpeversion="1" />
    <marker
       style="overflow:visible"
       id="RoundedArrow-0-0"
       refX="0"
       refY="0"
       orient="auto-start-reverse"
       inkscape:stockid="RoundedArrow"
       markerWidth="4.1350002"
       markerHeight="3.9973247"
       viewBox="0 0 6.1347524 5.9304951"
       inkscape:isstock="true"
       inkscape:collect="always"
       preserveAspectRatio="xMidYMid">
      <path
         transform="scale(0.7)"
         d="m -0.21114562,-4.1055728 6.42229122,3.21114561 a 1,1 90 0 1 0,1.78885438 L -0.21114562,4.1055728 A 1.236068,1.236068 31.717474 0 1 -2,3 v -6 a 1.236068,1.236068 148.28253 0 1 1.78885438,-1.1055728 z"
         style="fill:context-stroke;fill-rule:evenodd;stroke:none"
         id="path1367-9-6" />
    </marker>
    <inkscape:path-effect
       effect="spiro"
       id="path-effect1775-3-2"
       is_visible="true"
       lpeversion="1" />
    <marker
       style="overflow:visible"
       id="RoundedArrow-0-1"
       refX="0"
       refY="0"
       orient="auto-start-reverse"
       inkscape:stockid="RoundedArrow"
       markerWidth="4.1350002"
       markerHeight="3.9973247"
       viewBox="0 0 6.1347524 5.9304951"
       inkscape:isstock="true"
       inkscape:collect="always"
       preserveAspectRatio="xMidYMid">
      <path
         transform="scale(0.7)"
         d="m -0.21114562,-4.1055728 6.42229122,3.21114561 a 1,1 90 0 1 0,1.78885438 L -0.21114562,4.1055728 A 1.236068,1.236068 31.717474 0 1 -2,3 v -6 a 1.236068,1.236068 148.28253 0 1 1.78885438,-1.1055728 z"
         style="fill:context-stroke;fill-rule:evenodd;stroke:none"
         id="path1367-9-8" />
    </marker>
    <inkscape:path-effect
       effect="spiro"
       id="path-effect1775-3-7"
       is_visible="true"
       lpeversion="1" />
    <marker
       style="overflow:visible"
       id="RoundedArrow-0-0-9"
       refX="0"
       refY="0"
       orient="auto-start-reverse"
       inkscape:stockid="RoundedArrow"
       markerWidth="4.1350002"
       markerHeight="3.9973247"
       viewBox="0 0 6.1347524 5.9304951"
       inkscape:isstock="true"
       inkscape:collect="always"
       preserveAspectRatio="xMidYMid">
      <path
         transform="scale(0.7)"
         d="m -0.21114562,-4.1055728 6.42229122,3.21114561 a 1,1 90 0 1 0,1.78885438 L -0.21114562,4.1055728 A 1.236068,1.236068 31.717474 0 1 -2,3 v -6 a 1.236068,1.236068 148.28253 0 1 1.78885438,-1.1055728 z"
         style="fill:context-stroke;fill-rule:evenodd;stroke:none"
         id="path1367-9-6-2" />
    </marker>
    <inkscape:path-effect
       effect="spiro"
       id="path-effect1775-3-2-0"
       is_visible="true"
       lpeversion="1" />
    <filter
       inkscape:collect="always"
       style="color-interpolation-filters:sRGB"
       id="filter2929"
       x="-0.015561482"
       y="-0.026132635"
       width="1.031123"
       height="1.0522653">
      <feGaussianBlur
         inkscape:collect="always"
         stdDeviation="0.314867"
         id="feGaussianBlur2931" />
    </filter>
    <filter
       inkscape:collect="always"
       style="color-interpolation-filters:sRGB"
       id="filter4589"
       x="-0.02128981"
       y="-0.035941346"
       width="1.0425796"
       height="1.0718827">
      <feGaussianBlur
         inkscape:collect="always"
         stdDeviation="0.43340981"
         id="feGaussianBlur4591" />
    </filter>
  </defs>
  <g
     inkscape:label="Layer 1"
     inkscape:groupmode="layer"
     id="layer1"
     transform="translate(41.804148,-81.878291)">
    <circle
       style="opacity:1;fill:#c93b4f;stroke:none;stroke-width:2.57258"
       id="path234"
       cx="54.675499"
       cy="97.262367"
       r="15.384076" />
    <path
       style="opacity:1;fill:#505050;fill-opacity:1;stroke:#404040;stroke-width:2;stroke-dasharray:none;stroke-opacity:1"
       d="M 151.15514,97.262367 H 102.30267"
       id="path2065-3"
       inkscape:path-effect="#path-effect2067-5"
       inkscape:original-d="m 151.15514,97.262367 c -16.28389,2.7e-4 -32.56805,2.7e-4 -48.85247,0" />
    <path
       style="opacity:1;fill:#505050;fill-opacity:1;stroke:#404040;stroke-width:2;stroke-dasharray:none;stroke-opacity:1"
       d="M 7.0483279,97.262367 H -41.804148"
       id="path2065"
       inkscape:path-effect="#path-effect2067"
       inkscape:original-d="m 7.0483279,97.262367 c -16.2838949,2.65e-4 -32.5680529,2.65e-4 -48.8524759,0" />
    <circle
       style="opacity:1;fill:#a0754f;fill-opacity:1;stroke:none;stroke-width:1.79303"
       id="circle1767"
       cx="12.342162"
       cy="97.262367"
       r="10.72236" />
    <circle
       style="fill:#67604f;fill-opacity:1;stroke:none;stroke-width:1.79303"
       id="circle1767-5"
       cx="97.008812"
       cy="97.262367"
       r="10.72236" />
    <path
       style="opacity:0.596746;mix-blend-mode:normal;fill:#a0754f;fill-opacity:1;stroke:none;stroke-width:1.66608;stroke-dasharray:none;stroke-opacity:1;filter:url(#filter2929)"
       d="m 9.4046451,105.49942 c 0.8862489,1.55014 1.9258639,3.03414 3.2614729,4.21927 1.335608,1.18513 2.989822,2.06053 4.764445,2.25826 1.678324,0.187 3.380019,-0.23723 4.914385,-0.94253 1.534366,-0.70531 2.924927,-1.6835 4.299322,-2.66471 1.374395,-0.98121 2.750679,-1.97616 4.2665,-2.72049 1.51582,-0.74433 3.194453,-1.23252 4.880145,-1.13161 1.663454,0.0996 3.243339,0.76351 4.704733,1.56433 1.461395,0.80083 2.842375,1.74714 4.336401,2.48531 1.494026,0.73816 3.141093,1.26876 4.80374,1.15652 0.831324,-0.0561 1.656452,-0.27593 2.382812,-0.68416 0.72636,-0.40823 1.35081,-1.00887 1.745279,-1.74279 0.459307,-0.85456 0.59243,-1.8492 0.589224,-2.81937 -0.0032,-0.97016 -0.13435,-1.93551 -0.168086,-2.90509 -0.119819,-3.443601 0.987875,-6.83305 0.958291,-10.278608 -0.01479,-1.722779 -0.328654,-3.475325 -1.171699,-4.97781 -0.421522,-0.751243 -0.973312,-1.432959 -1.643594,-1.97404 -0.670282,-0.541081 -1.460417,-0.939271 -2.3024,-1.121235 -1.564219,-0.338049 -3.221474,0.08898 -4.608267,0.887649 -1.386793,0.798664 -2.5386,1.945159 -3.611172,3.132866 -1.072572,1.187708 -2.087868,2.434589 -3.282003,3.5 -1.194134,1.065412 -2.597069,1.954359 -4.165782,2.2709 -1.655223,0.333997 -3.392311,0.0059 -4.946131,-0.65511 -1.553821,-0.661029 -2.949146,-1.640773 -4.29924,-2.654954 -1.350093,-1.014182 -2.673656,-2.073934 -4.133132,-2.923196 -1.459476,-0.849262 -3.078285,-1.48737 -4.764722,-1.5725 -2.181373,-0.110113 -4.366344,0.739252 -6.00847,2.179369 -1.642126,1.440117 -2.7523739,3.439219 -3.2657831,5.562171 -0.5134092,2.122953 -0.4481953,4.363713 0.02729,6.49548 0.4754851,2.131768 1.352382,4.159938 2.4364415,6.056078 z"
       id="path1896"
       inkscape:path-effect="#path-effect1898"
       inkscape:original-d="m 9.4046451,105.49942 c -2.270366,6.76412 5.3508049,4.31861 8.0259179,6.47753 2.675114,2.15893 10.463481,-8.40502 18.360352,-7.45934 7.896868,0.94567 13.759114,5.28544 17.972965,2.77921 4.213852,-2.50623 0.280952,-3.81606 0.421138,-5.72446 0.140188,-1.908412 -2.772744,-12.234211 -4.159402,-18.351693 -1.38666,-6.117483 -14.699593,9.78354 -15.667224,9.791415 -0.967633,0.0078 -7.840324,-8.459265 -18.143225,-7.80576 -10.3029032,0.653505 -4.540156,13.528987 -6.8105219,20.293098 z"
       sodipodi:nodetypes="sssssscss" />
    <path
       style="opacity:0.594856;mix-blend-mode:normal;fill:#505050;fill-opacity:1;stroke:none;stroke-width:1.67273;stroke-dasharray:none;stroke-opacity:1;filter:url(#filter4589)"
       d="m 99.954135,105.37066 c -0.892937,1.55587 -1.943721,3.0426 -3.29037,4.22775 -1.34665,1.18516 -3.011194,2.05779 -4.794307,2.25416 -1.688894,0.186 -3.400628,-0.23948 -4.945799,-0.94617 -1.545171,-0.70669 -2.94719,-1.68648 -4.33341,-2.66901 -1.386221,-0.98252 -2.774667,-1.97838 -4.30222,-2.72238 -1.527553,-0.744 -3.217392,-1.2306 -4.913325,-1.12683 -1.675638,0.10253 -3.26666,0.77191 -4.739112,1.57824 -1.472451,0.80633 -2.864588,1.7583 -4.370715,2.49982 -1.506127,0.74152 -3.166475,1.27305 -4.841205,1.15663 -0.837365,-0.0582 -1.668148,-0.28139 -2.399017,-0.69418 -0.730869,-0.4128 -1.358649,-1.01922 -1.754489,-1.75941 -0.457771,-0.856 -0.591248,-1.85072 -0.589099,-2.82143 0.0021,-0.97071 0.131666,-1.93677 0.164877,-2.90691 0.117926,-3.444836 -0.977327,-6.837687 -0.937587,-10.284312 0.01987,-1.723313 0.338108,-3.475178 1.182711,-4.977458 0.422301,-0.751141 0.97417,-1.432964 1.644049,-1.975009 0.669879,-0.542045 1.459111,-0.942101 2.300679,-1.127341 1.571459,-0.345898 3.239441,0.07653 4.637095,0.873835 1.397655,0.797303 2.560433,1.945415 3.643095,3.135782 1.082662,1.190366 2.107277,2.440878 3.31024,3.509526 1.202962,1.068649 2.614227,1.960502 4.191487,2.278905 1.665337,0.336183 3.41299,0.0083 4.977622,-0.653778 1.564631,-0.662039 2.971016,-1.643992 4.332386,-2.660378 1.36137,-1.016385 2.696477,-2.078309 4.167537,-2.928221 1.47106,-0.849912 3.101524,-1.487076 4.798495,-1.568668 2.183986,-0.105008 4.36997,0.743802 6.016666,2.182278 1.646701,1.438476 2.764611,3.435503 3.286041,5.55893 0.52142,2.123426 0.46417,4.367088 -0.007,6.502251 -0.47106,2.135158 -1.34707,4.166988 -2.435435,6.063378 z"
       id="path1896-7"
       inkscape:path-effect="#path-effect1898-6"
       inkscape:original-d="m 99.954135,105.37066 c 2.286975,6.76869 -5.389982,4.32153 -8.084677,6.48191 -2.694691,2.16039 -10.540075,-8.41071 -18.494754,-7.46439 -7.954679,0.94632 -13.859839,5.28902 -18.104538,2.7811 -4.2447,-2.50793 -0.283008,-3.81865 -0.424222,-5.72834 -0.141216,-1.9097 2.793047,-12.24249 4.189852,-18.36412 1.396813,-6.12162 14.807203,9.790167 15.781917,9.798048 0.974716,0.0077 7.897719,-8.464994 18.27604,-7.811045 10.378327,0.65395 4.573397,13.538143 6.860382,20.306837 z"
       sodipodi:nodetypes="sssssscss" />
    <path
       style="opacity:1;fill:#c93b4f;stroke:#000000;stroke-width:2;stroke-opacity:1;marker-start:url(#RoundedArrow)"
       d="M 48.325498,94.701307 V 107.74973"
       id="path1028"
       inkscape:path-effect="#path-effect1030"
       inkscape:original-d="m 48.325498,94.701307 c 2.64e-4,5.892403 2.64e-4,7.156543 0,13.048423"
       sodipodi:nodetypes="cc" />
    <path
       style="opacity:1;fill:#c93b4f;stroke:#000000;stroke-width:2;stroke-opacity:1;marker-start:url(#RoundedArrow)"
       d="M 61.0255,99.823427 V 86.775004"
       id="path1375"
       inkscape:path-effect="#path-effect1379"
       inkscape:original-d="m 61.0255,99.823427 c 2.64e-4,-5.892403 2.64e-4,-7.156543 0,-13.048423"
       sodipodi:nodetypes="cc" />
    <path
       style="opacity:1;fill:#c93b4f;stroke:#000000;stroke-width:1.64136;stroke-opacity:1;marker-start:url(#RoundedArrow)"
       d="M 12.4225,100.63098 V 89.922382"
       id="path1769"
       inkscape:path-effect="#path-effect1775"
       inkscape:original-d="m 12.4225,100.63098 c 2.16e-4,-4.835788 2.16e-4,-5.873248 0,-10.708598"
       sodipodi:nodetypes="cc" />
    <path
       style="fill:#c93b4f;stroke:#000000;stroke-width:1.64136;stroke-opacity:1;marker-start:url(#RoundedArrow-9)"
       d="M 96.928498,94.527152 V 105.23575"
       id="path1769-7"
       inkscape:path-effect="#path-effect1775-2"
       inkscape:original-d="m 96.928498,94.527152 c 2.16e-4,4.83579 2.16e-4,5.873248 0,10.708598"
       sodipodi:nodetypes="cc" />
    <circle
       style="opacity:1;fill:#a0754f;fill-opacity:1;stroke:none;stroke-width:1.0824"
       id="circle2289"
       cx="-12.480123"
       cy="97.262367"
       r="6.4727621" />
    <path
       style="fill:#c93b4f;stroke:#000000;stroke-width:1.04879;stroke-opacity:1;marker-start:url(#RoundedArrow-0)"
       d="m -14.123266,98.878761 5.4482853,-5.35239"
       id="path1769-6"
       inkscape:path-effect="#path-effect1775-3"
       inkscape:original-d="m -14.123266,98.878761 c 3.639326,-2.10105 1.809386,-3.251354 5.4482853,-5.35239"
       sodipodi:nodetypes="cc" />
    <circle
       style="opacity:1;fill:#a0754f;fill-opacity:1;stroke:none;stroke-width:1.0824"
       id="circle2291"
       cx="-32.156387"
       cy="97.262367"
       r="6.4727621" />
    <path
       style="fill:#c93b4f;stroke:#000000;stroke-width:1.04879;stroke-opacity:1;marker-start:url(#RoundedArrow-0-0)"
       d="m -33.799531,95.645973 5.448285,5.352387"
       id="path1769-6-6"
       inkscape:path-effect="#path-effect1775-3-2"
       inkscape:original-d="m -33.799531,95.645973 c 3.639326,2.10105 1.809386,3.25136 5.448285,5.352387"
       sodipodi:nodetypes="cc" />
    <circle
       style="fill:#67604f;fill-opacity:1;stroke:none;stroke-width:1.0824"
       id="circle2289-6"
       cx="140.99796"
       cy="97.262367"
       r="6.4727621" />
    <circle
       style="fill:#67604f;fill-opacity:1;stroke:none;stroke-width:1.0824"
       id="circle2291-2"
       cx="121.3216"
       cy="97.262367"
       r="6.4727621" />
    <path
       style="fill:#c93b4f;stroke:#000000;stroke-width:1.04879;stroke-opacity:1;marker-start:url(#RoundedArrow-0-1)"
       d="m 122.96484,98.878764 -5.44829,-5.35239"
       id="path1769-6-2"
       inkscape:path-effect="#path-effect1775-3-7"
       inkscape:original-d="m 122.96484,98.878764 c -3.63933,-2.10105 -1.80939,-3.25135 -5.44829,-5.35239"
       sodipodi:nodetypes="cc" />
    <path
       style="fill:#c93b4f;stroke:#000000;stroke-width:1.04879;stroke-opacity:1;marker-start:url(#RoundedArrow-0-0-9)"
       d="m 142.6411,95.645974 -5.44828,5.352386"
       id="path1769-6-6-3"
       inkscape:path-effect="#path-effect1775-3-2-0"
       inkscape:original-d="m 142.6411,95.645974 c -3.63933,2.10105 -1.80939,3.25136 -5.44828,5.352386"
       sodipodi:nodetypes="cc" />
  </g>
</svg>
