<?xml version="1.0" encoding="UTF-8" standalone="no"?>
<!-- Created with Inkscape (http://www.inkscape.org/) -->

<svg
   width="224.35596mm"
   height="179.53035mm"
   viewBox="0 0 224.35597 179.53035"
   version="1.1"
   id="svg5"
   inkscape:version="1.2.2 (b0a8486541, 2022-12-01)"
   sodipodi:docname="correlations.svg"
   xmlns:inkscape="http://www.inkscape.org/namespaces/inkscape"
   xmlns:sodipodi="http://sodipodi.sourceforge.net/DTD/sodipodi-0.dtd"
   xmlns="http://www.w3.org/2000/svg"
   xmlns:svg="http://www.w3.org/2000/svg">
  <sodipodi:namedview
     id="namedview7"
     pagecolor="#ffffff"
     bordercolor="#000000"
     borderopacity="0.25"
     inkscape:showpageshadow="2"
     inkscape:pageopacity="0.0"
     inkscape:pagecheckerboard="0"
     inkscape:deskcolor="#d1d1d1"
     inkscape:document-units="mm"
     showgrid="false"
     inkscape:zoom="0.72803302"
     inkscape:cx="531.5693"
     inkscape:cy="434.04625"
     inkscape:window-width="1916"
     inkscape:window-height="1048"
     inkscape:window-x="0"
     inkscape:window-y="28"
     inkscape:window-maximized="1"
     inkscape:current-layer="layer1" />
  <defs
     id="defs2">
    <inkscape:path-effect
       effect="spiro"
       id="path-effect1687"
       is_visible="true"
       lpeversion="1" />
    <inkscape:path-effect
       effect="spiro"
       id="path-effect1683"
       is_visible="true"
       lpeversion="1" />
    <inkscape:path-effect
       effect="spiro"
       id="path-effect1679"
       is_visible="true"
       lpeversion="1" />
    <inkscape:path-effect
       effect="spiro"
       id="path-effect1597"
       is_visible="true"
       lpeversion="1" />
    <inkscape:path-effect
       effect="spiro"
       id="path-effect1504"
       is_visible="true"
       lpeversion="1" />
    <inkscape:path-effect
       effect="spiro"
       id="path-effect1289"
       is_visible="true"
       lpeversion="1" />
    <rect
       x="174.81126"
       y="273.55109"
       width="305.62628"
       height="272.62155"
       id="rect898" />
    <rect
       x="174.81126"
       y="273.55109"
       width="305.62628"
       height="272.62155"
       id="rect898-6" />
    <rect
       x="174.81126"
       y="273.55109"
       width="305.62628"
       height="272.62155"
       id="rect1000" />
    <rect
       x="174.81126"
       y="273.55109"
       width="305.62628"
       height="272.62155"
       id="rect1008" />
    <rect
       x="174.81126"
       y="273.55109"
       width="305.62628"
       height="272.62155"
       id="rect1022" />
    <rect
       x="174.81126"
       y="273.55109"
       width="305.62628"
       height="272.62155"
       id="rect1024" />
    <rect
       x="174.81126"
       y="273.55109"
       width="305.62628"
       height="272.62155"
       id="rect1164" />
    <rect
       x="174.81126"
       y="273.55109"
       width="305.62628"
       height="272.62155"
       id="rect1166" />
    <rect
       x="174.81126"
       y="273.55109"
       width="305.62628"
       height="272.62155"
       id="rect1168" />
    <rect
       x="174.81126"
       y="273.55109"
       width="305.62628"
       height="272.62155"
       id="rect1170" />
    <rect
       x="174.81126"
       y="273.55109"
       width="305.62628"
       height="272.62155"
       id="rect1172" />
    <rect
       x="174.81126"
       y="273.55109"
       width="305.62628"
       height="272.62155"
       id="rect1174" />
    <rect
       x="174.81126"
       y="273.55109"
       width="305.62628"
       height="272.62155"
       id="rect1212" />
    <rect
       x="174.81126"
       y="273.55109"
       width="305.62628"
       height="272.62155"
       id="rect1214" />
    <rect
       x="174.81126"
       y="273.55109"
       width="305.62628"
       height="272.62155"
       id="rect1216" />
    <rect
       x="174.81126"
       y="273.55109"
       width="305.62628"
       height="272.62155"
       id="rect1218" />
    <rect
       x="174.81126"
       y="273.55109"
       width="305.62628"
       height="272.62155"
       id="rect1220" />
    <rect
       x="174.81126"
       y="273.55109"
       width="305.62628"
       height="272.62155"
       id="rect1222" />
    <inkscape:path-effect
       effect="spiro"
       id="path-effect1289-3"
       is_visible="true"
       lpeversion="1" />
    <inkscape:path-effect
       effect="spiro"
       id="path-effect1289-3-6"
       is_visible="true"
       lpeversion="1" />
    <inkscape:path-effect
       effect="spiro"
       id="path-effect1504-9"
       is_visible="true"
       lpeversion="1" />
    <inkscape:path-effect
       effect="spiro"
       id="path-effect1597-2"
       is_visible="true"
       lpeversion="1" />
    <rect
       x="174.81126"
       y="273.55109"
       width="305.62628"
       height="272.62155"
       id="rect1665" />
    <rect
       x="174.81126"
       y="273.55109"
       width="305.62628"
       height="272.62155"
       id="rect1667" />
    <rect
       x="174.81126"
       y="273.55109"
       width="305.62628"
       height="272.62155"
       id="rect1669" />
    <rect
       x="174.81126"
       y="273.55109"
       width="305.62628"
       height="272.62155"
       id="rect1671" />
    <rect
       x="174.81126"
       y="273.55109"
       width="305.62628"
       height="272.62155"
       id="rect1673" />
    <rect
       x="174.81126"
       y="273.55109"
       width="305.62628"
       height="272.62155"
       id="rect1675" />
    <inkscape:path-effect
       effect="spiro"
       id="path-effect1687-0"
       is_visible="true"
       lpeversion="1" />
  </defs>
  <g
     inkscape:label="Layer 1"
     inkscape:groupmode="layer"
     id="layer1"
     transform="translate(28.171862,-61.090335)">
    <path
       style="opacity:1;fill:#c0c0c0;fill-opacity:0.466667;stroke:#000000;stroke-width:1;stroke-dasharray:none;stroke-opacity:1"
       d="m 101.65979,231.72803 c 2.80936,2.16067 6.23772,3.39171 9.71065,4.09864 3.47293,0.70693 7.02395,0.91964 10.55355,1.24046 7.24848,0.65885 14.45926,1.78057 21.73127,2.08446 7.27202,0.3039 14.69301,-0.23972 21.5044,-2.80477 6.55218,-2.46744 12.35014,-6.75944 16.96,-12.02902 4.60986,-5.26959 8.05777,-11.49712 10.49679,-18.05993 2.26227,-6.08722 3.68403,-12.6449 2.80329,-19.0789 -0.44036,-3.21701 -1.46238,-6.37018 -3.14097,-9.14963 -1.67859,-2.77945 -4.02536,-5.17625 -6.85491,-6.76895 -3.04804,-1.71568 -6.5393,-2.45668 -9.99254,-3.01274 -3.45324,-0.55606 -6.95768,-0.95645 -10.27166,-2.0752 -4.02498,-1.35878 -7.62303,-3.72729 -11.48574,-5.49539 -3.32666,-1.52273 -6.90755,-2.60778 -10.56564,-2.66878 -3.6581,-0.061 -7.40725,0.968 -10.23261,3.29238 -2.80641,2.30878 -4.56261,5.86687 -4.61988,9.50048 -0.0573,3.63361 1.60739,7.27099 4.43778,9.55031 2.74624,2.21155 6.33638,3.07239 9.83884,3.47932 3.50245,0.40694 7.06468,0.42641 10.4957,1.23937 2.54384,0.60275 4.99991,1.6493 7.09344,3.21506 2.09352,1.56576 3.81428,3.66408 4.77725,6.09453 0.96298,2.43046 1.13923,5.19487 0.32664,7.67965 -0.81258,2.48478 -2.6445,4.6529 -5.03206,5.7178 -2.06207,0.91973 -4.42505,0.99768 -6.64518,0.58649 -2.22013,-0.41119 -4.32567,-1.28558 -6.38181,-2.21849 -7.40006,-3.35756 -14.49316,-7.57939 -22.36617,-9.59184 -3.9365,-1.00622 -8.05647,-1.43919 -12.08031,-0.87598 -4.02385,0.5632 -7.95208,2.16179 -10.98149,4.86941 -3.272403,2.9248 -5.39415,7.01573 -6.324205,11.30503 -0.930055,4.2893 -0.759456,8.88595 0.923814,12.9393 1.130499,2.72227 2.985216,5.1399 5.321761,6.93693 z"
       id="path1685"
       inkscape:path-effect="#path-effect1687"
       inkscape:original-d="m 101.65979,231.72803 c 6.32633,8.24639 13.50973,3.55966 20.2642,5.3391 6.75447,1.77944 28.82405,-0.47994 43.23567,-0.72031 14.41163,-0.24036 18.30479,-20.05903 27.45679,-30.08895 9.152,-10.02992 -4.79479,-23.33139 -7.19259,-34.99748 -2.39779,-11.6661 -13.5092,-3.3917 -20.2642,-5.08794 -6.755,-1.69624 -7.65689,-3.66333 -11.48574,-5.49539 -3.82884,-1.83206 -13.86523,0.416 -20.79825,0.6236 -6.93301,0.20761 -0.12114,12.70079 -0.1821,19.05079 -0.061,6.35 13.55662,3.14606 20.33454,4.71869 6.77791,1.57263 4.77711,15.13829 7.16527,22.70704 2.38816,7.56874 -8.6844,-1.08773 -13.02699,-1.632 -4.3426,-0.54426 -30.28505,-3.73201 -45.42797,-5.59841 -15.142924,-1.8664 -11.726721,15.99794 -5.400391,24.24433 z"
       sodipodi:nodetypes="sssssssssssssss" />
    <path
       style="fill:#c0c0c0;fill-opacity:0.466667;stroke:#000000;stroke-width:1;stroke-dasharray:1,1;stroke-opacity:1;stroke-dashoffset:0"
       d="m 182.48558,163.63419 c -2.80936,-2.16067 -6.23772,-3.39171 -9.71065,-4.09864 -3.47293,-0.70693 -7.02395,-0.91964 -10.55355,-1.24046 -7.24848,-0.65885 -14.45926,-1.78057 -21.73127,-2.08446 -7.27202,-0.3039 -14.69301,0.23972 -21.5044,2.80477 -6.55218,2.46744 -12.35014,6.75944 -16.96,12.02902 -4.609865,5.26959 -8.057773,11.49712 -10.496793,18.05993 -2.262269,6.08722 -3.684026,12.6449 -2.803294,19.0789 0.440366,3.217 1.462386,6.37018 3.140976,9.14963 1.67859,2.77945 4.025362,5.17625 6.854907,6.76895 3.048034,1.71568 6.539294,2.45668 9.992544,3.01274 3.45324,0.55606 6.95768,0.95645 10.27166,2.0752 4.02498,1.35878 7.62303,3.72729 11.48574,5.49539 3.32666,1.52273 6.90755,2.60778 10.56564,2.66878 3.6581,0.061 7.40725,-0.968 10.23261,-3.29238 2.80641,-2.30878 4.56261,-5.86687 4.61988,-9.50048 0.0573,-3.63361 -1.60739,-7.27099 -4.43778,-9.55031 -2.74624,-2.21155 -6.33638,-3.07239 -9.83884,-3.47932 -3.50245,-0.40694 -7.06468,-0.42641 -10.4957,-1.23937 -2.54384,-0.60275 -4.99991,-1.6493 -7.09344,-3.21506 -2.09352,-1.56576 -3.81428,-3.66408 -4.77725,-6.09453 -0.96298,-2.43046 -1.13923,-5.19487 -0.32664,-7.67965 0.81258,-2.48478 2.6445,-4.6529 5.03206,-5.7178 2.06207,-0.91973 4.42505,-0.99768 6.64518,-0.58649 2.22013,0.41119 4.32567,1.28558 6.38181,2.21849 7.40006,3.35756 14.49316,7.57939 22.36617,9.59184 3.9365,1.00623 8.05647,1.43919 12.08031,0.87598 4.02385,-0.5632 7.95208,-2.16179 10.98149,-4.86941 3.2724,-2.9248 5.39415,-7.01573 6.3242,-11.30503 0.93006,-4.2893 0.75946,-8.88595 -0.92381,-12.9393 -1.1305,-2.72227 -2.98522,-5.1399 -5.32176,-6.93693 z"
       id="path1685-9"
       inkscape:path-effect="#path-effect1687-0"
       inkscape:original-d="m 182.48558,163.63419 c -6.32633,-8.24639 -13.50973,-3.55966 -20.2642,-5.3391 -6.75447,-1.77944 -28.82405,0.47994 -43.23567,0.72031 -14.41163,0.24036 -18.30479,20.05903 -27.456793,30.08895 -9.152,10.02992 4.794789,23.33139 7.192589,34.99748 2.397794,11.6661 13.509204,3.3917 20.264204,5.08794 6.755,1.69624 7.65689,3.66333 11.48574,5.49539 3.82884,1.83206 13.86523,-0.416 20.79825,-0.6236 6.93301,-0.20761 0.12114,-12.70079 0.1821,-19.05079 0.061,-6.35 -13.55662,-3.14606 -20.33454,-4.71869 -6.77791,-1.57263 -4.77711,-15.13829 -7.16527,-22.70704 -2.38816,-7.56874 8.6844,1.08773 13.02699,1.632 4.3426,0.54426 30.28505,3.73201 45.42797,5.59841 15.14293,1.8664 11.72672,-15.99794 5.40039,-24.24433 z"
       sodipodi:nodetypes="sssssssssssssss" />
    <path
       style="opacity:1;fill:#c0c0c0;fill-opacity:0.466667;stroke:#000000;stroke-width:1;stroke-dasharray:none;stroke-opacity:1"
       d="m 25.550238,63.060841 c -3.62831,-0.438252 -7.397815,0.584302 -10.357396,2.728499 -2.95958,2.144196 -5.094014,5.376938 -5.9859107,8.921119 -0.8918962,3.544181 -0.5506112,7.372972 0.8754977,10.737925 1.426109,3.364953 3.917871,6.25542 6.989953,8.235068 5.260327,3.389752 12.104514,3.986078 18.043718,2.014451 1.173067,-0.389421 2.315078,-0.87235 3.411635,-1.442699 1.192515,1.771872 2.598508,3.399927 4.177869,4.837718 3.173316,2.888868 7.100786,5.011738 11.329368,5.742898 3.884584,0.67168 7.965492,0.14472 11.559274,-1.47574 3.593782,-1.62045 6.687185,-4.325724 8.787001,-7.662177 2.229179,-3.542002 3.329239,-7.896532 2.487229,-11.996048 -0.421005,-2.049759 -1.322137,-4.00825 -2.663019,-5.614734 -1.340882,-1.606484 -3.125082,-2.852111 -5.118871,-3.487376 -1.823608,-0.581042 -3.779476,-0.647833 -5.683198,-0.450356 -1.903723,0.197476 -3.770054,0.65189 -5.631666,1.096366 -1.861612,0.444476 -3.733378,0.881521 -5.640474,1.043197 -1.907097,0.161676 -3.864015,0.03926 -5.664507,-0.609884 -2.235136,-0.805845 -4.103796,-2.368111 -5.902379,-3.920631 -2.224011,-1.919746 -4.429944,-3.878846 -6.889805,-5.485313 -2.459861,-1.606467 -5.207552,-2.859976 -8.124319,-3.212283 z"
       id="path1287"
       inkscape:path-effect="#path-effect1289"
       inkscape:original-d="m 25.550238,63.060841 c -8.69018,-1.171279 -9.336847,22.143523 -8.477856,30.622611 0.858988,8.479088 12.029408,1.343232 18.043718,2.014451 6.014307,0.671218 2.824436,-0.356713 3.411635,-1.442699 0,0 2.785509,3.225411 4.177869,4.837718 1.392359,1.612308 7.553176,3.828868 11.329368,5.742898 3.776191,1.91404 13.564449,-6.091677 20.346275,-9.137917 C 81.163076,92.651664 70.851737,81.632729 69.086586,74.599745 67.321434,67.566761 54.620774,74.269674 46.466741,75.679068 38.312709,77.088463 41.918267,74.115464 40.564362,71.758437 39.210458,69.40141 34.240416,64.23212 25.550238,63.060841 Z"
       sodipodi:nodetypes="sssssssssss" />
    <path
       style="fill:#c0c0c0;fill-opacity:0.466667;stroke:#000000;stroke-width:1;stroke-dasharray:6,1;stroke-opacity:1;stroke-dashoffset:0"
       d="M 11.910701,83.283285 C 11.394944,79.665179 9.4316129,76.288773 6.5944821,73.984997 3.7573513,71.681221 0.08233049,70.45621 -3.571925,70.512006 c -3.6542554,0.0558 -7.264253,1.376416 -10.145444,3.624845 -2.88119,2.248429 -5.028251,5.403395 -6.145331,8.883169 -1.912776,5.958417 -0.717374,12.723733 2.724248,17.95027 0.679764,1.03231 1.441812,2.01041 2.276536,2.92199 -1.402851,1.61048 -2.611533,3.38994 -3.591564,5.28761 -1.969117,3.81288 -3.003153,8.15597 -2.614959,12.4297 0.356615,3.92606 1.921833,7.73153 4.417212,10.78346 2.495378,3.05192 5.909103,5.33974 9.6753425,6.50447 3.9982659,1.23648 8.4891352,1.17202 12.2310361,-0.70233 1.8709504,-0.93718 3.5294777,-2.3145 4.7341758,-4.02548 1.2046976,-1.71098 1.9460956,-3.75678 2.0436846,-5.84705 0.08926,-1.91186 -0.352442,-3.81837 -1.03591,-5.60611 -0.683468,-1.78774 -1.60544,-3.47287 -2.5165917,-5.15601 -0.9111516,-1.68314 -1.8177525,-3.37802 -2.4675125,-5.17829 -0.64976,-1.80026 -1.0379993,-3.72219 -0.8769783,-5.62934 0.1998916,-2.36754 1.2252797,-4.57687 2.259391,-6.71599 1.2787161,-2.645097 2.600124,-5.282917 3.5151935,-8.074745 0.915069,-2.791827 1.41471,-5.770325 1.000097,-8.67889 z"
       id="path1287-5"
       inkscape:path-effect="#path-effect1289-3"
       inkscape:original-d="M 11.910701,83.283285 C 10.792886,74.586067 -11.894853,79.995749 -19.8627,83.02002 c -7.967849,3.024269 1.815977,11.96717 2.724248,17.95027 0.90827,5.9831 1.075576,2.63587 2.276536,2.92199 0,0 -2.394565,3.52539 -3.591564,5.28761 -1.197003,1.76221 -1.743498,8.28679 -2.614959,12.4297 -0.871471,4.14291 9.394849,11.52561 14.0925545,17.28793 4.697708,5.76231 12.672411,-7.04958 19.0088965,-10.57486 6.336486,-3.52528 -3.4252035,-14.05833 -6.8969925,-21.56975 -3.471789,-7.511408 0.333094,-4.79818 2.259391,-6.71599 1.926297,-1.917815 5.6331065,-8.056418 4.5152905,-16.753635 z"
       sodipodi:nodetypes="sssssssssss" />
    <path
       style="opacity:1;fill:#c0c0c0;fill-opacity:0.466667;stroke:#000000;stroke-width:1;stroke-dasharray:none;stroke-opacity:1"
       d="m 94.265123,76.158459 c -3.093288,2.939409 -4.925193,7.16449 -4.956464,11.431524 -0.03127,4.267033 1.738511,8.51851 4.788385,11.50294 2.899022,2.836817 6.870826,4.491757 10.915986,4.789377 4.04515,0.29762 8.14336,-0.72383 11.69855,-2.67639 2.87034,-1.576431 5.38702,-3.731157 8.22767,-5.36048 3.56902,-2.047094 7.64451,-3.233565 11.7584,-3.299972 4.11389,-0.06641 8.25653,1.001477 11.76392,3.152446 4.11272,2.522197 7.26513,6.431146 11.48582,8.768176 3.84123,2.12692 8.46864,2.80871 12.75114,1.8397 4.28251,-0.96901 8.17687,-3.58838 10.65517,-7.212857 2.02018,-2.954489 3.09298,-6.53719 3.08319,-10.116303 -0.01,-3.579113 -1.0946,-7.141046 -3.03599,-10.147897 -3.18816,-4.937873 -8.43958,-8.162177 -13.79542,-10.583328 -12.05995,-5.4518 -25.57966,-7.633026 -38.74223,-6.250549 -13.16258,1.382476 -25.93406,6.32509 -36.598117,14.163613 z"
       id="path1502"
       inkscape:path-effect="#path-effect1504"
       inkscape:original-d="m 94.265123,76.158459 c -25.113712,2.637424 -0.111789,15.289908 -0.168079,22.934464 -0.05629,7.644557 15.076616,1.408927 22.614536,2.112987 7.53791,0.70406 5.48538,-3.573389 8.22767,-5.36048 2.7423,-1.787091 15.68181,-0.09809 23.52232,-0.147526 7.84051,-0.04944 7.65748,5.845716 11.48582,8.768176 3.82835,2.92245 15.60447,-3.58184 23.40631,-5.373157 7.80184,-1.791316 0.0317,-13.509202 0.0472,-20.2642 0.0154,-6.754998 -9.19668,-7.055288 -13.79542,-10.583328 -4.59873,-3.528041 -50.22663,5.275641 -75.340347,7.913064 z" />
    <path
       style="fill:#c0c0c0;fill-opacity:0.466667;stroke:#000000;stroke-width:1;stroke-dasharray:1,1;stroke-opacity:1;stroke-dashoffset:0"
       d="m 94.265123,132.77371 c -3.093288,-2.93941 -4.925194,-7.16449 -4.956465,-11.43153 -0.03127,-4.26703 1.738512,-8.51851 4.788386,-11.50294 2.899022,-2.83682 6.870826,-4.49176 10.915986,-4.78938 4.04515,-0.29762 8.14336,0.72383 11.69855,2.67639 2.87034,1.57643 5.38702,3.73116 8.22767,5.36048 3.56902,2.04709 7.64451,3.23357 11.7584,3.29998 4.11389,0.0664 8.25653,-1.00148 11.76392,-3.15245 4.11272,-2.5222 7.26513,-6.43115 11.48582,-8.76818 3.84123,-2.12692 8.46864,-2.80871 12.75114,-1.8397 4.28251,0.96901 8.17687,3.58838 10.65517,7.21286 2.02018,2.95449 3.09298,6.53719 3.08319,10.1163 -0.01,3.57912 -1.0946,7.14105 -3.03599,10.1479 -3.18816,4.93787 -8.43958,8.16218 -13.79542,10.58333 -12.05995,5.4518 -25.57966,7.63303 -38.74223,6.25055 -13.16258,-1.38248 -25.93406,-6.32509 -36.598117,-14.16362 z"
       id="path1502-1"
       inkscape:path-effect="#path-effect1504-9"
       inkscape:original-d="m 94.265123,132.77371 c -25.113712,-2.63743 -0.111789,-15.28991 -0.168079,-22.93447 -0.05629,-7.64456 15.076626,-1.40893 22.614536,-2.11299 7.53791,-0.70406 5.48538,3.57339 8.22767,5.36048 2.7423,1.7871 15.68181,0.0981 23.52232,0.14753 7.84051,0.0494 7.65748,-5.84572 11.48582,-8.76818 3.82835,-2.92245 15.60447,3.58184 23.40631,5.37316 7.80184,1.79132 0.0317,13.5092 0.0472,20.2642 0.0154,6.755 -9.19668,7.05529 -13.79542,10.58333 -4.59873,3.52804 -50.22663,-5.27564 -75.340347,-7.91307 z" />
    <path
       style="fill:#c0c0c0;fill-opacity:0.466667;stroke:#000000;stroke-width:1;stroke-dasharray:1,1;stroke-opacity:1;stroke-dashoffset:0"
       d="m 71.32469,133.94469 c 2.866367,-1.93295 5.113058,-4.77028 6.337377,-8.00345 1.22432,-3.23317 1.420515,-6.84698 0.553421,-10.19369 -0.867094,-3.34672 -2.793404,-6.41061 -5.433659,-8.64251 -2.640256,-2.2319 -5.982052,-3.62133 -9.426408,-3.91924 -3.127869,-0.27054 -6.310736,0.34928 -9.168208,1.6499 -2.857472,1.30062 -5.39211,3.26975 -7.465336,5.6274 -0.8161,0.92806 -1.563236,1.91675 -2.233215,2.95523 -1.918748,-0.93809 -3.950379,-1.64502 -6.037003,-2.10065 -4.192614,-0.91549 -8.65569,-0.79109 -12.682971,0.69119 -3.698959,1.36143 -6.967405,3.86 -9.268245,7.06031 -2.30084,3.2003 -3.627348,7.08802 -3.78319,11.02649 -0.165654,4.18642 1.050744,8.5158 3.830523,11.65051 1.389889,1.56735 3.152121,2.81437 5.119905,3.53285 1.967784,0.71848 4.139766,0.8987 6.183967,0.44085 1.868718,-0.41855 3.590775,-1.3513 5.134295,-2.48481 1.543519,-1.13351 2.925408,-2.46909 4.312115,-3.78982 1.386707,-1.32073 2.790247,-2.63656 4.367325,-3.72289 1.577078,-1.08633 3.345374,-1.94226 5.235969,-2.24712 2.342016,-0.37765 4.724412,0.10233 7.071922,0.44417 5.743041,0.83629 11.605961,0.84484 17.351416,0.0253 z"
       id="path1287-5-2"
       inkscape:path-effect="#path-effect1289-3-6"
       inkscape:original-d="m 71.32469,133.94469 c 8.111548,-3.33073 -2.98582,-23.84527 -7.969269,-30.75889 -4.983454,-6.913609 -11.08939,4.85143 -16.633544,7.2773 -5.544153,2.42586 -2.267676,1.72114 -2.233215,2.95523 0,0 -4.025024,-1.40054 -6.037003,-2.10065 -2.011972,-0.70012 -8.455675,0.46069 -12.682971,0.69119 -4.227297,0.23049 -8.701317,12.05777 -13.051435,18.0868 -4.3501079,6.02903 10.089233,10.41604 15.134395,15.62421 5.045162,5.20817 12.692795,-6.94706 19.049704,-12.24464 6.356901,-5.29759 4.720899,-0.92012 7.071922,0.44417 2.351036,1.36429 9.239861,3.35601 17.351416,0.0253 z"
       sodipodi:nodetypes="sssssssssss" />
    <circle
       style="opacity:1;fill:#707070;fill-opacity:1;stroke:none;stroke-width:2.40771"
       id="path234"
       cx="27.204481"
       cy="78.377495"
       r="10.1321" />
    <text
       xml:space="preserve"
       transform="matrix(0.22696498,0,0,0.22696498,-48.100803,4.7150719)"
       id="text896"
       style="font-weight:500;font-size:86.6667px;font-family:'Fira Math';-inkscape-font-specification:'Fira Math Medium';text-align:center;white-space:pre;shape-inside:url(#rect898);opacity:1;fill:#000000;fill-opacity:1;stroke:none;stroke-width:7.55906"><tspan
         x="308.12398"
         y="353.71748"
         id="tspan1851">1</tspan></text>
    <circle
       style="fill:#707070;fill-opacity:1;stroke:none;stroke-width:2.40771"
       id="path234-7"
       cx="58.954487"
       cy="88.960823"
       r="10.1321" />
    <text
       xml:space="preserve"
       transform="matrix(0.22696498,0,0,0.22696498,-15.632839,15.416422)"
       id="text896-5"
       style="font-weight:500;font-size:86.6667px;font-family:'Fira Math';-inkscape-font-specification:'Fira Math Medium';text-align:center;white-space:pre;shape-inside:url(#rect898-6);fill:#000000;fill-opacity:1;stroke:none;stroke-width:7.55906"><tspan
         x="305.65402"
         y="353.71748"
         id="tspan1853">2</tspan></text>
    <circle
       style="fill:#707070;fill-opacity:1;stroke:none;stroke-width:2.40771"
       id="circle994"
       cx="58.954487"
       cy="120.71082"
       r="10.1321" />
    <text
       xml:space="preserve"
       transform="matrix(0.22696498,0,0,0.22696498,-15.406624,47.018895)"
       id="text998"
       style="font-weight:500;font-size:86.6667px;font-family:'Fira Math';-inkscape-font-specification:'Fira Math Medium';text-align:center;white-space:pre;shape-inside:url(#rect1000);fill:#000000;fill-opacity:1;stroke:none;stroke-width:7.55906"><tspan
         x="305.524"
         y="353.71748"
         id="tspan1855">3</tspan></text>
    <circle
       style="fill:#707070;fill-opacity:1;stroke:none;stroke-width:2.40771"
       id="circle1002"
       cx="27.204481"
       cy="131.29416"
       r="10.1321" />
    <text
       xml:space="preserve"
       transform="matrix(0.22696498,0,0,0.22696498,-47.233388,57.759593)"
       id="text1006"
       style="font-weight:500;font-size:86.6667px;font-family:'Fira Math';-inkscape-font-specification:'Fira Math Medium';text-align:center;white-space:pre;shape-inside:url(#rect1008);fill:#000000;fill-opacity:1;stroke:none;stroke-width:7.55906"><tspan
         x="303.79071"
         y="353.71748"
         id="tspan1857">4</tspan></text>
    <circle
       style="fill:#707070;fill-opacity:1;stroke:none;stroke-width:2.40771"
       id="circle1010"
       cx="-4.5455179"
       cy="88.960823"
       r="10.1321" />
    <text
       xml:space="preserve"
       transform="matrix(0.22696498,0,0,0.22696498,-78.765083,15.268895)"
       id="text1014"
       style="font-weight:500;font-size:86.6667px;font-family:'Fira Math';-inkscape-font-specification:'Fira Math Medium';text-align:center;white-space:pre;shape-inside:url(#rect1022);fill:#000000;fill-opacity:1;stroke:none;stroke-width:7.55906"><tspan
         x="303.79071"
         y="353.71748"
         id="tspan1859">6</tspan></text>
    <circle
       style="fill:#707070;fill-opacity:1;stroke:none;stroke-width:2.40771"
       id="circle1016"
       cx="-4.5455179"
       cy="120.71082"
       r="10.1321" />
    <text
       xml:space="preserve"
       transform="matrix(0.22696498,0,0,0.22696498,-78.351998,46.900873)"
       id="text1020"
       style="font-weight:500;font-size:86.6667px;font-family:'Fira Math';-inkscape-font-specification:'Fira Math Medium';text-align:center;white-space:pre;shape-inside:url(#rect1024);fill:#000000;fill-opacity:1;stroke:none;stroke-width:7.55906"><tspan
         x="305.09066"
         y="353.71748"
         id="tspan1861">5</tspan></text>
    <circle
       style="opacity:1;fill:#707070;fill-opacity:1;stroke:none;stroke-width:2.40771"
       id="circle1128"
       cx="138.32947"
       cy="78.377495"
       r="10.1321" />
    <text
       xml:space="preserve"
       transform="matrix(0.22696498,0,0,0.22696498,63.024203,4.7150719)"
       id="text1132"
       style="font-weight:500;font-size:86.6667px;font-family:'Fira Math';-inkscape-font-specification:'Fira Math Medium';text-align:center;white-space:pre;shape-inside:url(#rect1164);opacity:1;fill:#000000;fill-opacity:1;stroke:none;stroke-width:7.55906"><tspan
         x="308.12398"
         y="353.71748"
         id="tspan1863">1</tspan></text>
    <circle
       style="fill:#707070;fill-opacity:1;stroke:none;stroke-width:2.40771"
       id="circle1134"
       cx="170.0795"
       cy="88.960823"
       r="10.1321" />
    <text
       xml:space="preserve"
       transform="matrix(0.22696498,0,0,0.22696498,95.492167,15.416422)"
       id="text1138"
       style="font-weight:500;font-size:86.6667px;font-family:'Fira Math';-inkscape-font-specification:'Fira Math Medium';text-align:center;white-space:pre;shape-inside:url(#rect1166);fill:#000000;fill-opacity:1;stroke:none;stroke-width:7.55906"><tspan
         x="305.65402"
         y="353.71748"
         id="tspan1865">2</tspan></text>
    <circle
       style="fill:#707070;fill-opacity:1;stroke:none;stroke-width:2.40771"
       id="circle1140"
       cx="170.0795"
       cy="120.71082"
       r="10.1321" />
    <text
       xml:space="preserve"
       transform="matrix(0.22696498,0,0,0.22696498,95.718382,47.018895)"
       id="text1144"
       style="font-weight:500;font-size:86.6667px;font-family:'Fira Math';-inkscape-font-specification:'Fira Math Medium';text-align:center;white-space:pre;shape-inside:url(#rect1168);fill:#000000;fill-opacity:1;stroke:none;stroke-width:7.55906"><tspan
         x="305.524"
         y="353.71748"
         id="tspan1867">3</tspan></text>
    <circle
       style="fill:#707070;fill-opacity:1;stroke:none;stroke-width:2.40771"
       id="circle1146"
       cx="138.32947"
       cy="131.29416"
       r="10.1321" />
    <text
       xml:space="preserve"
       transform="matrix(0.22696498,0,0,0.22696498,63.891618,57.759593)"
       id="text1150"
       style="font-weight:500;font-size:86.6667px;font-family:'Fira Math';-inkscape-font-specification:'Fira Math Medium';text-align:center;white-space:pre;shape-inside:url(#rect1170);fill:#000000;fill-opacity:1;stroke:none;stroke-width:7.55906"><tspan
         x="303.79071"
         y="353.71748"
         id="tspan1869">4</tspan></text>
    <circle
       style="fill:#707070;fill-opacity:1;stroke:none;stroke-width:2.40771"
       id="circle1152"
       cx="106.57947"
       cy="88.960823"
       r="10.1321" />
    <text
       xml:space="preserve"
       transform="matrix(0.22696498,0,0,0.22696498,32.359922,15.268895)"
       id="text1156"
       style="font-weight:500;font-size:86.6667px;font-family:'Fira Math';-inkscape-font-specification:'Fira Math Medium';text-align:center;white-space:pre;shape-inside:url(#rect1172);fill:#000000;fill-opacity:1;stroke:none;stroke-width:7.55906"><tspan
         x="303.79071"
         y="353.71748"
         id="tspan1871">6</tspan></text>
    <circle
       style="fill:#707070;fill-opacity:1;stroke:none;stroke-width:2.40771"
       id="circle1158"
       cx="106.57947"
       cy="120.71082"
       r="10.1321" />
    <text
       xml:space="preserve"
       transform="matrix(0.22696498,0,0,0.22696498,32.773007,46.900873)"
       id="text1162"
       style="font-weight:500;font-size:86.6667px;font-family:'Fira Math';-inkscape-font-specification:'Fira Math Medium';text-align:center;white-space:pre;shape-inside:url(#rect1174);fill:#000000;fill-opacity:1;stroke:none;stroke-width:7.55906"><tspan
         x="305.09066"
         y="353.71748"
         id="tspan1873">5</tspan></text>
    <path
       style="opacity:1;fill:#c0c0c0;fill-opacity:0.466667;stroke:#000000;stroke-width:1;stroke-dasharray:none;stroke-opacity:1"
       d="m -27.485526,177.42821 c -0.435497,3.24745 0.08278,6.54279 0.714493,9.75784 0.631712,3.21504 1.381332,6.43532 1.412107,9.71169 0.03641,3.87632 -0.933378,7.68005 -1.628365,11.49374 -0.694988,3.81368 -1.108667,7.80669 0.01222,11.51759 1.301349,4.30834 4.668403,7.87385 8.771593,9.72293 4.10319,1.84909 8.8680086,2.03725 13.2066274,0.84073 4.9963910923,-1.37792 9.520226,-4.63996 12.0800674,-9.1466 1.2799208,-2.25332 2.0648237,-4.79241 2.2292172,-7.37865 0.1643936,-2.58623 -0.2965261,-5.21599 -1.3767346,-7.57158 -1.036505,-2.26029 -2.6374911,-4.28815 -3.21903,-6.7058 -0.3659168,-1.52124 -0.3008807,-3.13613 0.1293774,-4.64044 0.4302581,-1.5043 1.2200044,-2.89779 2.2449041,-4.08001 2.0497993,-2.36444 4.9906241,-3.83961 8.0429781,-4.5291 4.15123,-0.93771 8.516473,-0.50434 12.629719,0.588 4.113247,1.09235 8.023292,2.8242 11.928381,4.51603 5.439201,2.35646 11.083217,4.68693 17.010738,4.73508 2.963761,0.0241 5.961634,-0.54601 8.597363,-1.90151 2.635729,-1.3555 4.890357,-3.52735 6.110099,-6.22859 1.586683,-3.51386 1.307762,-7.6999 -0.25441,-11.22473 -1.562171,-3.52483 -4.307336,-6.42979 -7.44007,-8.67718 -5.906164,-4.23702 -13.113624,-6.24507 -20.2642,-7.5506 -10.461719,-1.91006 -21.1199,-2.48115 -31.74995,-2.79413 -8.0336644,-0.23653 -16.2887065,-0.29273 -23.823709,2.5036 -3.767501,1.39817 -7.304265,3.5184 -10.077232,6.42694 -2.772967,2.90854 -4.752062,6.63183 -5.286189,10.61475 z"
       id="path1595"
       inkscape:path-effect="#path-effect1597"
       inkscape:original-d="m -27.485526,177.42821 c -13.06265,6.51484 1.418,12.97995 2.1266,19.46953 0.7086,6.48958 -1.07716,15.34115 -1.61614,23.01133 -0.53898,7.67018 14.65241,7.04271 21.9782204,10.56366 7.32581,3.52096 8.62196,-16.06429 12.93255,-24.09683 4.3105796,-8.03255 -2.14576,-4.47027 -3.21903,-6.7058 -1.07328,-2.23553 6.9450996,-8.83277 10.4172596,-13.24955 3.47216,-4.41677 16.37232,3.40295 24.5581,5.10403 8.18576,1.70108 21.14574,-2.26308 31.7182,-3.39502 10.57249,-1.13194 -5.12937,-13.26767 -7.69448,-19.90191 -2.56508,-6.63423 -13.5092,-5.03346 -20.2642,-7.5506 -6.755,-2.51713 -21.16637,-1.86249 -31.74995,-2.79413 -10.5835796,-0.93165 -26.12449,13.03046 -39.18713,19.54529 z" />
    <path
       style="fill:#c0c0c0;fill-opacity:0.466667;stroke:#000000;stroke-width:1;stroke-dasharray:1,1;stroke-opacity:1;stroke-dashoffset:0"
       d="m 75.113264,220.47227 c 0.435497,-3.24745 -0.08278,-6.54279 -0.714493,-9.75784 -0.631712,-3.21504 -1.381332,-6.43532 -1.412107,-9.71169 -0.03641,-3.87632 0.933378,-7.68005 1.628365,-11.49374 0.694988,-3.81368 1.108667,-7.80669 -0.01223,-11.51759 -1.301349,-4.30834 -4.668403,-7.87385 -8.771593,-9.72293 -4.10319,-1.84908 -8.868008,-2.03725 -13.206627,-0.84073 -4.996391,1.37792 -9.520226,4.63996 -12.080067,9.1466 -1.279921,2.25332 -2.064824,4.79241 -2.229218,7.37865 -0.164393,2.58623 0.296527,5.21599 1.376735,7.57158 1.036505,2.26029 2.637491,4.28815 3.21903,6.7058 0.365917,1.52124 0.300881,3.13613 -0.129377,4.64044 -0.430259,1.5043 -1.220005,2.89779 -2.244905,4.08001 -2.049799,2.36444 -4.990624,3.83961 -8.042978,4.5291 -4.15123,0.93771 -8.516473,0.50434 -12.629719,-0.588 -4.113246,-1.09235 -8.023291,-2.8242 -11.9283806,-4.51603 -5.439201,-2.35646 -11.0832174,-4.68693 -17.0107389,-4.73509 -2.9637605,-0.0241 -5.9616335,0.54602 -8.5973635,1.90152 -2.635729,1.3555 -4.890356,3.52735 -6.110098,6.22859 -1.586681,3.51386 -1.307759,7.6999 0.254412,11.22473 1.562171,3.52482 4.307335,6.42978 7.440068,8.67717 5.906164,4.23702 13.1136243,6.24507 20.2642004,7.5506 10.4617196,1.91006 21.1198996,2.48116 31.7499496,2.79414 8.033665,0.23653 16.288707,0.29273 23.82371,-2.5036 3.767501,-1.39816 7.304265,-3.5184 10.077232,-6.42694 2.772967,-2.90853 4.752061,-6.63183 5.286188,-10.61475 z"
       id="path1595-7"
       inkscape:path-effect="#path-effect1597-2"
       inkscape:original-d="m 75.113264,220.47227 c 13.06265,-6.51484 -1.418,-12.97995 -2.1266,-19.46953 -0.7086,-6.48958 1.07716,-15.34115 1.61614,-23.01133 0.53898,-7.67018 -14.65241,-7.04271 -21.97822,-10.56366 -7.32581,-3.52096 -8.62196,16.06429 -12.93255,24.09683 -4.31058,8.03255 2.14576,4.47027 3.21903,6.7058 1.07328,2.23553 -6.9451,8.83277 -10.41726,13.24955 -3.47216,4.41677 -16.37232,-3.40295 -24.5580996,-5.10403 -8.18575996,-1.70108 -21.1457404,2.26308 -31.7182004,3.39502 -10.57249,1.13194 5.12937,13.26767 7.69448,19.9019 2.56508,6.63424 13.5092004,5.03347 20.2642004,7.5506 6.7549996,2.51714 21.1663696,1.8625 31.7499496,2.79414 10.58358,0.93165 26.12449,-13.03046 39.18713,-19.54529 z" />
    <circle
       style="opacity:1;fill:#707070;fill-opacity:1;stroke:none;stroke-width:2.40771"
       id="circle1176"
       cx="21.83371"
       cy="170.80916"
       r="10.1321" />
    <text
       xml:space="preserve"
       transform="matrix(0.22696498,0,0,0.22696498,-53.471616,97.146731)"
       id="text1180"
       style="font-weight:500;font-size:86.6667px;font-family:'Fira Math';-inkscape-font-specification:'Fira Math Medium';text-align:center;white-space:pre;shape-inside:url(#rect1212);opacity:1;fill:#000000;fill-opacity:1;stroke:none;stroke-width:7.55906"><tspan
         x="308.12398"
         y="353.71748"
         id="tspan1875">1</tspan></text>
    <circle
       style="fill:#707070;fill-opacity:1;stroke:none;stroke-width:2.40771"
       id="circle1182"
       cx="53.583664"
       cy="181.39249"
       r="10.1321" />
    <text
       xml:space="preserve"
       transform="matrix(0.22696498,0,0,0.22696498,-21.003636,107.84808)"
       id="text1186"
       style="font-weight:500;font-size:86.6667px;font-family:'Fira Math';-inkscape-font-specification:'Fira Math Medium';text-align:center;white-space:pre;shape-inside:url(#rect1214);fill:#000000;fill-opacity:1;stroke:none;stroke-width:7.55906"><tspan
         x="305.65402"
         y="353.71748"
         id="tspan1877">2</tspan></text>
    <circle
       style="fill:#707070;fill-opacity:1;stroke:none;stroke-width:2.40771"
       id="circle1188"
       cx="53.583664"
       cy="213.14249"
       r="10.1321" />
    <text
       xml:space="preserve"
       transform="matrix(0.22696498,0,0,0.22696498,-20.777416,139.45055)"
       id="text1192"
       style="font-weight:500;font-size:86.6667px;font-family:'Fira Math';-inkscape-font-specification:'Fira Math Medium';text-align:center;white-space:pre;shape-inside:url(#rect1216);fill:#000000;fill-opacity:1;stroke:none;stroke-width:7.55906"><tspan
         x="305.524"
         y="353.71748"
         id="tspan1879">3</tspan></text>
    <circle
       style="fill:#707070;fill-opacity:1;stroke:none;stroke-width:2.40771"
       id="circle1194"
       cx="21.83371"
       cy="223.72581"
       r="10.1321" />
    <text
       xml:space="preserve"
       transform="matrix(0.22696498,0,0,0.22696498,-52.604196,150.19125)"
       id="text1198"
       style="font-weight:500;font-size:86.6667px;font-family:'Fira Math';-inkscape-font-specification:'Fira Math Medium';text-align:center;white-space:pre;shape-inside:url(#rect1218);fill:#000000;fill-opacity:1;stroke:none;stroke-width:7.55906"><tspan
         x="303.79071"
         y="353.71748"
         id="tspan1881">4</tspan></text>
    <circle
       style="fill:#707070;fill-opacity:1;stroke:none;stroke-width:2.40771"
       id="circle1200"
       cx="-9.9163218"
       cy="181.39249"
       r="10.1321" />
    <text
       xml:space="preserve"
       transform="matrix(0.22696498,0,0,0.22696498,-84.135916,107.70055)"
       id="text1204"
       style="font-weight:500;font-size:86.6667px;font-family:'Fira Math';-inkscape-font-specification:'Fira Math Medium';text-align:center;white-space:pre;shape-inside:url(#rect1220);fill:#000000;fill-opacity:1;stroke:none;stroke-width:7.55906"><tspan
         x="303.79071"
         y="353.71748"
         id="tspan1883">6</tspan></text>
    <circle
       style="fill:#707070;fill-opacity:1;stroke:none;stroke-width:2.40771"
       id="circle1206"
       cx="-9.9163218"
       cy="213.14249"
       r="10.1321" />
    <text
       xml:space="preserve"
       transform="matrix(0.22696498,0,0,0.22696498,-83.722826,139.33253)"
       id="text1210"
       style="font-weight:500;font-size:86.6667px;font-family:'Fira Math';-inkscape-font-specification:'Fira Math Medium';text-align:center;white-space:pre;shape-inside:url(#rect1222);fill:#000000;fill-opacity:1;stroke:none;stroke-width:7.55906"><tspan
         x="305.09066"
         y="353.71748"
         id="tspan1885">5</tspan></text>
    <circle
       style="opacity:1;fill:#707070;fill-opacity:1;stroke:none;stroke-width:2.40771"
       id="circle1629"
       cx="143.54182"
       cy="170.80916"
       r="10.1321" />
    <text
       xml:space="preserve"
       transform="matrix(0.22696498,0,0,0.22696498,68.236794,97.146731)"
       id="text1633"
       style="font-weight:500;font-size:86.6667px;font-family:'Fira Math';-inkscape-font-specification:'Fira Math Medium';text-align:center;white-space:pre;shape-inside:url(#rect1665);opacity:1;fill:#000000;fill-opacity:1;stroke:none;stroke-width:7.55906"><tspan
         x="308.12398"
         y="353.71748"
         id="tspan1887">1</tspan></text>
    <circle
       style="fill:#707070;fill-opacity:1;stroke:none;stroke-width:2.40771"
       id="circle1635"
       cx="175.29176"
       cy="181.39249"
       r="10.1321" />
    <text
       xml:space="preserve"
       transform="matrix(0.22696498,0,0,0.22696498,100.70477,107.84808)"
       id="text1639"
       style="font-weight:500;font-size:86.6667px;font-family:'Fira Math';-inkscape-font-specification:'Fira Math Medium';text-align:center;white-space:pre;shape-inside:url(#rect1667);fill:#000000;fill-opacity:1;stroke:none;stroke-width:7.55906"><tspan
         x="305.65402"
         y="353.71748"
         id="tspan1889">2</tspan></text>
    <circle
       style="fill:#707070;fill-opacity:1;stroke:none;stroke-width:2.40771"
       id="circle1641"
       cx="175.29176"
       cy="213.14249"
       r="10.1321" />
    <text
       xml:space="preserve"
       transform="matrix(0.22696498,0,0,0.22696498,100.93099,139.45055)"
       id="text1645"
       style="font-weight:500;font-size:86.6667px;font-family:'Fira Math';-inkscape-font-specification:'Fira Math Medium';text-align:center;white-space:pre;shape-inside:url(#rect1669);fill:#000000;fill-opacity:1;stroke:none;stroke-width:7.55906"><tspan
         x="305.524"
         y="353.71748"
         id="tspan1891">3</tspan></text>
    <circle
       style="fill:#707070;fill-opacity:1;stroke:none;stroke-width:2.40771"
       id="circle1647"
       cx="143.54182"
       cy="223.72581"
       r="10.1321" />
    <text
       xml:space="preserve"
       transform="matrix(0.22696498,0,0,0.22696498,69.104214,150.19125)"
       id="text1651"
       style="font-weight:500;font-size:86.6667px;font-family:'Fira Math';-inkscape-font-specification:'Fira Math Medium';text-align:center;white-space:pre;shape-inside:url(#rect1671);fill:#000000;fill-opacity:1;stroke:none;stroke-width:7.55906"><tspan
         x="303.79071"
         y="353.71748"
         id="tspan1893">4</tspan></text>
    <circle
       style="fill:#707070;fill-opacity:1;stroke:none;stroke-width:2.40771"
       id="circle1653"
       cx="111.79189"
       cy="181.39249"
       r="10.1321" />
    <text
       xml:space="preserve"
       transform="matrix(0.22696498,0,0,0.22696498,37.572494,107.70055)"
       id="text1657"
       style="font-weight:500;font-size:86.6667px;font-family:'Fira Math';-inkscape-font-specification:'Fira Math Medium';text-align:center;white-space:pre;shape-inside:url(#rect1673);fill:#000000;fill-opacity:1;stroke:none;stroke-width:7.55906"><tspan
         x="303.79071"
         y="353.71748"
         id="tspan1895">6</tspan></text>
    <circle
       style="fill:#707070;fill-opacity:1;stroke:none;stroke-width:2.40771"
       id="circle1659"
       cx="111.79189"
       cy="213.14249"
       r="10.1321" />
    <text
       xml:space="preserve"
       transform="matrix(0.22696498,0,0,0.22696498,37.985584,139.33253)"
       id="text1663"
       style="font-weight:500;font-size:86.6667px;font-family:'Fira Math';-inkscape-font-specification:'Fira Math Medium';text-align:center;white-space:pre;shape-inside:url(#rect1675);fill:#000000;fill-opacity:1;stroke:none;stroke-width:7.55906"><tspan
         x="305.09066"
         y="353.71748"
         id="tspan1897">5</tspan></text>
  </g>
</svg>
