<?xml version="1.0" encoding="UTF-8" standalone="no"?>
<svg
   id="visual"
   viewBox="0 0 1280 400"
   width="1280"
   height="400"
   version="1.1"
   sodipodi:docname="layered-waves-haikei.svg"
   inkscape:version="1.2.2 (b0a8486541, 2022-12-01)"
   xmlns:inkscape="http://www.inkscape.org/namespaces/inkscape"
   xmlns:sodipodi="http://sodipodi.sourceforge.net/DTD/sodipodi-0.dtd"
   xmlns="http://www.w3.org/2000/svg"
   xmlns:svg="http://www.w3.org/2000/svg">
  <defs
     id="defs1433" />
  <sodipodi:namedview
     id="namedview1431"
     pagecolor="#ffffff"
     bordercolor="#000000"
     borderopacity="0.25"
     inkscape:showpageshadow="2"
     inkscape:pageopacity="0.0"
     inkscape:pagecheckerboard="0"
     inkscape:deskcolor="#d1d1d1"
     showgrid="false"
     inkscape:zoom="0.78614848"
     inkscape:cx="639.19223"
     inkscape:cy="119.57029"
     inkscape:window-width="1920"
     inkscape:window-height="1019"
     inkscape:window-x="1920"
     inkscape:window-y="151"
     inkscape:window-maximized="1"
     inkscape:current-layer="visual" />
  <rect
     x="0"
     y="0"
     width="1280"
     height="398.67111"
     fill="#001220"
     id="rect1404"
     style="stroke-width:1.37477" />
  <path
     d="m 0,77.109886 15.217778,4.453658 c 15.075555,4.453658 45.51111,13.360975 76.088887,22.713656 30.577775,9.12999 61.297775,18.92805 91.875555,23.60438 30.57778,4.89903 61.01333,4.89903 91.30666,-2.89488 30.29334,-7.7939 60.72889,-23.38169 91.02223,-30.73023 30.29333,-7.571219 60.72888,-6.680475 91.30666,2.226841 30.57778,8.907309 61.29778,25.831189 91.87555,20.709489 30.57778,-5.1217 61.01334,-32.734366 91.30667,-45.649975 30.29333,-12.915608 60.72889,-11.579511 91.30667,-6.680487 30.57777,4.899024 61.29777,12.915597 91.87555,18.482682 30.57778,5.567072 61.01333,8.684633 91.30666,6.680475 30.29334,-1.781451 60.72889,-8.461951 91.02223,-5.121707 30.2933,3.340256 60.7289,16.701222 91.3067,21.822922 30.5777,5.34439 61.2977,2.22683 91.8755,-0.66805 30.5778,-2.89487 61.0133,-6.01243 76.0889,-7.348532 L 1280,97.15136 v 302.84865 h -15.2178 c -15.0756,0 -45.5111,0 -76.0889,0 -30.5778,0 -61.2978,0 -91.8755,0 -30.5778,0 -61.0134,0 -91.3067,0 -30.29334,0 -60.72889,0 -91.02223,0 -30.29333,0 -60.72888,0 -91.30666,0 -30.57778,0 -61.29778,0 -91.87555,0 -30.57778,0 -61.01334,0 -91.30667,0 -30.29333,0 -60.72889,0 -91.30667,0 -30.57777,0 -61.29777,0 -91.87555,0 -30.57778,0 -61.01333,0 -91.30666,0 -30.29334,0 -60.72889,0 -91.02223,0 -30.29333,0 -60.72888,0 -91.30666,0 -30.57778,0 -61.29778,0 -91.875555,0 -30.577777,0 -61.013332,0 -76.088887,0 H 0 Z"
     fill="#001122"
     id="path1406"
     style="stroke-width:1.77961" />
  <path
     d="m 0,159.50255 15.217778,-0.66805 c 15.075555,-0.89074 45.51111,-2.22684 76.088887,-10.91146 30.577775,-8.46195 61.297775,-24.04974 91.875555,-25.83121 30.57778,-2.00414 61.01333,10.02074 91.30666,6.68048 30.29334,-3.34024 60.72889,-22.0456 91.02223,-30.062182 30.29333,-8.239267 60.72888,-6.012426 91.30666,-1.558768 30.57778,4.45365 61.29778,11.13413 91.87555,9.57535 30.57778,-1.33609 61.01334,-11.134142 91.30667,-5.1217 30.29333,6.01243 60.72889,27.38999 91.30667,29.61681 30.57777,2.22684 61.29777,-14.69707 91.87555,-15.14244 30.57778,-0.44535 61.01333,16.03319 91.30666,14.47439 30.29334,-1.55877 60.72889,-20.7095 91.02223,-26.27657 30.2933,-5.567072 60.7289,2.44951 91.3067,14.47439 30.5777,11.80218 61.2977,27.38999 91.8755,33.40241 30.5778,5.78976 61.0133,2.22684 76.0889,0.2227 L 1280,150.59523 v 249.40478 h -15.2178 c -15.0756,0 -45.5111,0 -76.0889,0 -30.5778,0 -61.2978,0 -91.8755,0 -30.5778,0 -61.0134,0 -91.3067,0 -30.29334,0 -60.72889,0 -91.02223,0 -30.29333,0 -60.72888,0 -91.30666,0 -30.57778,0 -61.29778,0 -91.87555,0 -30.57778,0 -61.01334,0 -91.30667,0 -30.29333,0 -60.72889,0 -91.30667,0 -30.57777,0 -61.29777,0 -91.87555,0 -30.57778,0 -61.01333,0 -91.30666,0 -30.29334,0 -60.72889,0 -91.02223,0 -30.29333,0 -60.72888,0 -91.30666,0 -30.57778,0 -61.29778,0 -91.875555,0 -30.577777,0 -61.013332,0 -76.088887,0 H 0 Z"
     fill="#131d36"
     id="path1408"
     style="stroke-width:1.77961" />
  <path
     d="m 0,132.78061 15.217778,3.78561 c 15.075555,3.56292 45.51111,11.13414 76.088887,8.01658 30.577775,-2.89488 61.297775,-16.25584 91.875555,-13.36098 30.57778,3.11756 61.01333,22.26828 91.30666,22.71366 30.29334,0.44536 60.72889,-18.26 91.02223,-22.93634 30.29333,-4.89903 60.72888,4.00829 91.30666,9.57536 30.57778,5.56708 61.29778,7.79391 91.87555,11.5795 30.57778,3.56294 61.01334,8.90732 91.30667,11.80221 30.29333,2.89486 60.72889,3.78561 91.30667,-3.34026 30.57777,-7.12585 61.29777,-21.82291 91.87555,-30.06218 30.57778,-8.23927 61.01333,-9.57536 91.30666,-9.35268 30.29334,0.44537 60.72889,2.67221 91.02223,4.45366 30.2933,2.00416 60.7289,3.34025 91.3067,-0.22268 30.5777,-3.78561 61.2977,-12.69293 91.8755,-5.34438 30.5778,7.57122 61.0133,31.17559 76.0889,43.20047 L 1280,175.09034 v 224.90967 h -15.2178 c -15.0756,0 -45.5111,0 -76.0889,0 -30.5778,0 -61.2978,0 -91.8755,0 -30.5778,0 -61.0134,0 -91.3067,0 -30.29334,0 -60.72889,0 -91.02223,0 -30.29333,0 -60.72888,0 -91.30666,0 -30.57778,0 -61.29778,0 -91.87555,0 -30.57778,0 -61.01334,0 -91.30667,0 -30.29333,0 -60.72889,0 -91.30667,0 -30.57777,0 -61.29777,0 -91.87555,0 -30.57778,0 -61.01333,0 -91.30666,0 -30.29334,0 -60.72889,0 -91.02223,0 -30.29333,0 -60.72888,0 -91.30666,0 -30.57778,0 -61.29778,0 -91.875555,0 -30.577777,0 -61.013332,0 -76.088887,0 H 0 Z"
     fill="#2c2749"
     id="path1410"
     style="stroke-width:1.77961" />
  <path
     d="m 0,152.82205 15.217778,-0.44535 c 15.075555,-0.2227 45.51111,-1.11342 76.088887,-5.12172 30.577775,-4.00828 61.297775,-11.5795 91.875555,-7.12584 30.57778,4.45366 61.01333,20.93218 91.30666,33.84778 30.29334,12.91562 60.72889,22.71365 91.02223,22.2683 30.29333,-0.44537 60.72888,-10.68878 91.30666,-21.82293 30.57778,-11.13413 61.29778,-23.15901 91.87555,-19.3734 30.57778,3.78561 61.01334,22.93633 91.30667,34.07046 30.29333,11.13416 60.72889,14.25172 91.30667,14.47439 30.57777,0.44538 61.29777,-1.78146 91.87555,-10.02073 30.57778,-8.01657 61.01333,-22.26828 91.30666,-33.62511 30.29334,-11.57949 60.72889,-20.48681 91.02223,-23.15901 30.2933,-2.44951 60.7289,1.11342 91.3067,9.35269 30.5777,8.23926 61.2977,20.70949 91.8755,27.83534 30.5778,7.12586 61.0133,8.46196 76.0889,9.35269 L 1280,183.99766 v 216.00235 h -15.2178 c -15.0756,0 -45.5111,0 -76.0889,0 -30.5778,0 -61.2978,0 -91.8755,0 -30.5778,0 -61.0134,0 -91.3067,0 -30.29334,0 -60.72889,0 -91.02223,0 -30.29333,0 -60.72888,0 -91.30666,0 -30.57778,0 -61.29778,0 -91.87555,0 -30.57778,0 -61.01334,0 -91.30667,0 -30.29333,0 -60.72889,0 -91.30667,0 -30.57777,0 -61.29777,0 -91.87555,0 -30.57778,0 -61.01333,0 -91.30666,0 -30.29334,0 -60.72889,0 -91.02223,0 -30.29333,0 -60.72888,0 -91.30666,0 -30.57778,0 -61.29778,0 -91.875555,0 -30.577777,0 -61.013332,0 -76.088887,0 H 0 Z"
     fill="#493059"
     id="path1412"
     style="stroke-width:1.77961" />
  <path
     d="m 0,161.72937 15.217778,8.23927 c 15.075555,8.01658 45.51111,24.49512 76.088887,26.27658 30.577775,1.78145 61.297775,-10.68878 91.875555,-20.04146 30.57778,-9.35269 61.01333,-15.14244 91.30666,-9.35269 30.29334,6.01246 60.72889,23.82708 91.02223,34.51586 30.29333,10.91146 60.72888,14.47437 91.30666,8.90731 30.57778,-5.56707 61.29778,-20.26414 91.87555,-22.49097 30.57778,-2.22683 61.01334,8.01658 91.30667,11.13414 30.29333,2.89487 60.72889,-1.55879 91.30667,0.22267 30.57777,2.00415 61.29777,10.02074 91.87555,4.89904 30.57778,-5.12171 61.01333,-23.82707 91.30666,-26.72195 30.29334,-2.89488 60.72889,9.57537 91.02223,13.80633 30.2933,4.0083 60.7289,-0.44535 91.3067,-2.22682 30.5777,-2.00414 61.2977,-1.11341 91.8755,1.3361 30.5778,2.67218 61.0133,7.12584 76.0889,9.35268 L 1280,201.81228 v 198.18773 h -15.2178 c -15.0756,0 -45.5111,0 -76.0889,0 -30.5778,0 -61.2978,0 -91.8755,0 -30.5778,0 -61.0134,0 -91.3067,0 -30.29334,0 -60.72889,0 -91.02223,0 -30.29333,0 -60.72888,0 -91.30666,0 -30.57778,0 -61.29778,0 -91.87555,0 -30.57778,0 -61.01334,0 -91.30667,0 -30.29333,0 -60.72889,0 -91.30667,0 -30.57777,0 -61.29777,0 -91.87555,0 -30.57778,0 -61.01333,0 -91.30666,0 -30.29334,0 -60.72889,0 -91.02223,0 -30.29333,0 -60.72888,0 -91.30666,0 -30.57778,0 -61.29778,0 -91.875555,0 -30.577777,0 -61.013332,0 -76.088887,0 H 0 Z"
     fill="#683764"
     id="path1414"
     style="stroke-width:1.77961" />
  <path
     d="m 0,206.26594 15.217778,7.34853 c 15.075555,7.57122 45.51111,22.2683 76.088887,23.82706 30.577775,1.5588 61.297775,-10.46608 91.875555,-16.03315 30.57778,-5.56708 61.01333,-4.67635 91.30666,-5.12171 30.29334,-0.44537 60.72889,-1.78146 91.02223,1.78146 30.29333,3.78561 60.72888,12.69293 91.30666,15.36512 30.57778,2.44952 61.29778,-1.11342 91.87555,-6.4578 30.57778,-5.12171 61.01334,-11.8022 91.30667,-15.14244 30.29333,-3.34023 60.72889,-3.34023 91.30667,-2.67219 30.57777,0.89073 61.29777,2.22682 91.87555,-0.66804 30.57778,-2.89489 61.01333,-10.46611 91.30666,-12.91562 30.29334,-2.6722 60.72889,-0.44536 91.02223,4.0083 30.2933,4.45366 60.7289,11.13414 91.3067,16.25584 30.5777,5.34439 61.2977,8.90731 91.8755,6.01244 30.5778,-2.89488 61.0133,-12.69292 76.0889,-17.36927 L 1280,199.58546 v 200.41455 h -15.2178 c -15.0756,0 -45.5111,0 -76.0889,0 -30.5778,0 -61.2978,0 -91.8755,0 -30.5778,0 -61.0134,0 -91.3067,0 -30.29334,0 -60.72889,0 -91.02223,0 -30.29333,0 -60.72888,0 -91.30666,0 -30.57778,0 -61.29778,0 -91.87555,0 -30.57778,0 -61.01334,0 -91.30667,0 -30.29333,0 -60.72889,0 -91.30667,0 -30.57777,0 -61.29777,0 -91.87555,0 -30.57778,0 -61.01333,0 -91.30666,0 -30.29334,0 -60.72889,0 -91.02223,0 -30.29333,0 -60.72888,0 -91.30666,0 -30.57778,0 -61.29778,0 -91.875555,0 -30.577777,0 -61.013332,0 -76.088887,0 H 0 Z"
     fill="#893e6a"
     id="path1416"
     style="stroke-width:1.77961" />
  <path
     d="m 0,215.17325 15.217778,0.44537 c 15.075555,0.22268 45.51111,1.11341 76.088887,10.24341 30.577775,9.35269 61.297775,27.16731 91.875555,28.28073 30.57778,1.11341 61.01333,-14.47439 91.30666,-19.59609 30.29334,-5.3444 60.72889,0 91.02223,0.66805 30.29333,0.66805 60.72888,-2.89489 91.30666,-2.89489 30.57778,0 61.29778,3.56294 91.87555,1.11342 30.57778,-2.67219 61.01334,-11.57951 91.30667,-12.02487 30.29333,-0.22269 60.72889,7.79389 91.30667,14.91975 30.57777,7.12585 61.29777,12.9156 91.87555,14.02902 30.57778,1.11341 61.01333,-2.44951 91.30666,-6.23512 30.29334,-3.78561 60.72889,-7.34855 91.02223,-11.8022 30.2933,-4.45366 60.7289,-9.79804 91.3067,-9.79804 30.5777,0 61.2977,5.34438 91.8755,8.23927 30.5778,2.89486 61.0133,3.78561 76.0889,4.00828 L 1280,235.21472 v 164.78529 h -15.2178 c -15.0756,0 -45.5111,0 -76.0889,0 -30.5778,0 -61.2978,0 -91.8755,0 -30.5778,0 -61.0134,0 -91.3067,0 -30.29334,0 -60.72889,0 -91.02223,0 -30.29333,0 -60.72888,0 -91.30666,0 -30.57778,0 -61.29778,0 -91.87555,0 -30.57778,0 -61.01334,0 -91.30667,0 -30.29333,0 -60.72889,0 -91.30667,0 -30.57777,0 -61.29777,0 -91.87555,0 -30.57778,0 -61.01333,0 -91.30666,0 -30.29334,0 -60.72889,0 -91.02223,0 -30.29333,0 -60.72888,0 -91.30666,0 -30.57778,0 -61.29778,0 -91.875555,0 -30.577777,0 -61.013332,0 -76.088887,0 H 0 Z"
     fill="#a9476b"
     id="path1418"
     style="stroke-width:1.77961" />
  <path
     d="m 0,268.61713 15.217778,-2.89487 c 15.075555,-3.11756 45.51111,-8.90731 76.088887,-7.12584 30.577775,1.78144 61.297775,11.5795 91.875555,15.58778 30.57778,4.00829 61.01333,2.6722 91.30666,-0.44536 30.29334,-2.89487 60.72889,-7.34853 91.02223,-8.01658 30.29333,-0.89074 60.72888,2.22682 91.30666,1.3361 30.57778,-0.66805 61.29778,-5.12171 91.87555,-4.45366 30.57778,0.89072 61.01334,6.68048 91.30667,4.23098 30.29333,-2.67221 60.72889,-13.80634 91.30667,-12.02487 30.57777,2.00414 61.29777,16.70121 91.87555,22.71364 30.57778,6.01245 61.01333,2.89489 91.30666,-4.00828 30.29334,-7.12586 60.72889,-18.26 91.02223,-23.38171 30.2933,-5.34439 60.7289,-4.45366 91.3067,-0.89073 30.5777,3.78561 61.2977,10.46608 91.8755,18.26 30.5778,7.7939 61.0133,16.7012 76.0889,21.15486 L 1280,293.11225 v 106.88776 h -15.2178 c -15.0756,0 -45.5111,0 -76.0889,0 -30.5778,0 -61.2978,0 -91.8755,0 -30.5778,0 -61.0134,0 -91.3067,0 -30.29334,0 -60.72889,0 -91.02223,0 -30.29333,0 -60.72888,0 -91.30666,0 -30.57778,0 -61.29778,0 -91.87555,0 -30.57778,0 -61.01334,0 -91.30667,0 -30.29333,0 -60.72889,0 -91.30667,0 -30.57777,0 -61.29777,0 -91.87555,0 -30.57778,0 -61.01333,0 -91.30666,0 -30.29334,0 -60.72889,0 -91.02223,0 -30.29333,0 -60.72888,0 -91.30666,0 -30.57778,0 -61.29778,0 -91.875555,0 -30.577777,0 -61.013332,0 -76.088887,0 H 0 Z"
     fill="#c55366"
     id="path1420"
     style="stroke-width:1.77961" />
  <path
     d="m 0,288.65859 15.217778,3.78561 c 15.075555,3.56291 45.51111,11.13413 76.088887,13.36098 30.577775,2.22681 61.297775,-0.89075 91.875555,-7.57122 30.57778,-6.68049 61.01333,-16.92391 91.30666,-14.69706 30.29334,2.22681 60.72889,16.92387 91.02223,19.15071 30.29333,2.22682 60.72888,-8.01658 91.30666,-8.90731 30.57778,-0.66805 61.29778,8.23927 91.87555,8.90731 30.57778,0.89072 61.01334,-6.6805 91.30667,-7.34853 30.29333,-0.66805 60.72889,5.12169 91.30667,1.55878 30.57777,-3.78561 61.29777,-17.14657 91.87555,-17.81462 30.57778,-0.89075 61.01333,11.13413 91.30666,12.47023 30.29334,1.55878 60.72889,-7.34854 91.02223,-12.24756 30.2933,-4.67633 60.7289,-5.56707 91.3067,-5.56707 30.5777,0 61.2977,0.89074 91.8755,2.6722 30.5778,1.78145 61.0133,4.89901 76.0889,6.23511 L 1280,284.20493 v 115.79508 h -15.2178 c -15.0756,0 -45.5111,0 -76.0889,0 -30.5778,0 -61.2978,0 -91.8755,0 -30.5778,0 -61.0134,0 -91.3067,0 -30.29334,0 -60.72889,0 -91.02223,0 -30.29333,0 -60.72888,0 -91.30666,0 -30.57778,0 -61.29778,0 -91.87555,0 -30.57778,0 -61.01334,0 -91.30667,0 -30.29333,0 -60.72889,0 -91.30667,0 -30.57777,0 -61.29777,0 -91.87555,0 -30.57778,0 -61.01333,0 -91.30666,0 -30.29334,0 -60.72889,0 -91.02223,0 -30.29333,0 -60.72888,0 -91.30666,0 -30.57778,0 -61.29778,0 -91.875555,0 -30.577777,0 -61.013332,0 -76.088887,0 H 0 Z"
     fill="#dd645e"
     id="path1422"
     style="stroke-width:1.77961" />
  <path
     d="m 0,308.70004 15.217778,-2.67218 c 15.075555,-2.44953 45.51111,-7.7939 76.088887,-5.56709 30.577775,2.22684 61.297775,12.02488 91.875555,18.92805 30.57778,7.12585 61.01333,11.57951 91.30666,8.68463 30.29334,-3.11756 60.72889,-13.36096 91.02223,-13.80634 30.29333,-0.44536 60.72888,9.3527 91.30666,12.69293 30.57778,3.34024 61.29778,0.22268 91.87555,-2.00415 30.57778,-2.22683 61.01334,-3.56292 91.30667,-7.79389 30.29333,-4.0083 60.72889,-10.68878 91.30667,-11.13414 30.57777,-0.22268 61.29777,5.56707 91.87555,7.5712 30.57778,1.78148 61.01333,-0.44536 91.30666,-1.11341 30.29334,-0.89072 60.72889,0 91.02223,1.11341 30.2933,1.11343 60.7289,2.44953 91.3067,5.12171 30.5777,2.6722 61.2977,6.23512 91.8755,8.23927 30.5778,1.78146 61.0133,1.78146 76.0889,1.78146 H 1280 v 71.25851 h -15.2178 c -15.0756,0 -45.5111,0 -76.0889,0 -30.5778,0 -61.2978,0 -91.8755,0 -30.5778,0 -61.0134,0 -91.3067,0 -30.29334,0 -60.72889,0 -91.02223,0 -30.29333,0 -60.72888,0 -91.30666,0 -30.57778,0 -61.29778,0 -91.87555,0 -30.57778,0 -61.01334,0 -91.30667,0 -30.29333,0 -60.72889,0 -91.30667,0 -30.57777,0 -61.29777,0 -91.87555,0 -30.57778,0 -61.01333,0 -91.30666,0 -30.29334,0 -60.72889,0 -91.02223,0 -30.29333,0 -60.72888,0 -91.30666,0 -30.57778,0 -61.29778,0 -91.875555,0 -30.577777,0 -61.013332,0 -76.088887,0 H 0 Z"
     fill="#ef7953"
     id="path1424"
     style="stroke-width:1.77961" />
  <path
     d="m 0,355.46345 15.217778,0.44537 c 15.075555,0.22267 45.51111,1.1134 76.088887,-4.23098 30.577775,-5.1217 61.297775,-16.25586 91.875555,-20.26414 30.57778,-4.23098 61.01333,-1.11342 91.30666,3.34024 30.29334,4.45365 60.72889,10.2434 91.02223,11.35682 30.29333,1.11342 60.72888,-2.44951 91.30666,-5.56708 30.57778,-2.89486 61.29778,-5.1217 91.87555,-4.00828 30.57778,1.11342 61.01334,5.56708 91.30667,5.56708 30.29333,0 60.72889,-4.45366 91.30667,-7.34854 30.57777,-3.11757 61.29777,-4.45366 91.87555,-4.23096 30.57778,0.44535 61.01333,2.67218 91.30666,6.01242 30.29334,3.34024 60.72889,7.79389 91.02223,6.68049 30.2933,-1.11341 60.7289,-7.79391 91.3067,-11.80219 30.5777,-4.23098 61.2977,-5.56708 91.8755,-4.45366 30.5778,1.11341 61.0133,4.67633 76.0889,6.6805 L 1280,335.42198 v 64.57803 h -15.2178 c -15.0756,0 -45.5111,0 -76.0889,0 -30.5778,0 -61.2978,0 -91.8755,0 -30.5778,0 -61.0134,0 -91.3067,0 -30.29334,0 -60.72889,0 -91.02223,0 -30.29333,0 -60.72888,0 -91.30666,0 -30.57778,0 -61.29778,0 -91.87555,0 -30.57778,0 -61.01334,0 -91.30667,0 -30.29333,0 -60.72889,0 -91.30667,0 -30.57777,0 -61.29777,0 -91.87555,0 -30.57778,0 -61.01333,0 -91.30666,0 -30.29334,0 -60.72889,0 -91.02223,0 -30.29333,0 -60.72888,0 -91.30666,0 -30.57778,0 -61.29778,0 -91.875555,0 -30.577777,0 -61.013332,0 -76.088887,0 H 0 Z"
     fill="#f99347"
     id="path1426"
     style="stroke-width:1.77961" />
  <path
     d="m 0,364.37076 15.217778,-1.11342 c 15.075555,-1.11341 45.51111,-3.34024 76.088887,-1.55877 30.577775,2.00414 61.297775,7.79389 91.875555,6.68048 30.57778,-1.1134 61.01333,-9.12999 91.30666,-12.24756 30.29334,-2.89488 60.72889,-0.66804 91.02223,3.78561 30.29333,4.45366 60.72888,11.13413 91.30666,10.68878 30.57778,-0.22269 61.29778,-7.79389 91.87555,-11.35682 30.57778,-3.78561 61.01334,-3.78561 91.30667,-4.23099 30.29333,-0.22267 60.72889,-1.11341 91.30667,2.22685 30.57777,3.34023 61.29777,10.91145 91.87555,12.69292 30.57778,1.78146 61.01333,-1.78147 91.30666,-3.34025 30.29334,-1.55878 60.72889,-0.66805 91.02223,-0.44536 30.2933,0.44536 60.7289,0.44536 91.3067,-1.78147 30.5777,-2.22683 61.2977,-6.68049 91.8755,-4.89903 30.5778,2.00415 61.0133,10.02073 76.0889,14.25171 L 1280,377.73173 v 22.26828 h -15.2178 c -15.0756,0 -45.5111,0 -76.0889,0 -30.5778,0 -61.2978,0 -91.8755,0 -30.5778,0 -61.0134,0 -91.3067,0 -30.29334,0 -60.72889,0 -91.02223,0 -30.29333,0 -60.72888,0 -91.30666,0 -30.57778,0 -61.29778,0 -91.87555,0 -30.57778,0 -61.01334,0 -91.30667,0 -30.29333,0 -60.72889,0 -91.30667,0 -30.57777,0 -61.29777,0 -91.87555,0 -30.57778,0 -61.01333,0 -91.30666,0 -30.29334,0 -60.72889,0 -91.02223,0 -30.29333,0 -60.72888,0 -91.30666,0 -30.57778,0 -61.29778,0 -91.875555,0 -30.577777,0 -61.013332,0 -76.088887,0 H 0 Z"
     fill="#fcaf3c"
     id="path1428"
     style="stroke-width:1.77961" />
</svg>
