<?xml version="1.0" encoding="UTF-8" standalone="no"?>
<!-- Created with Inkscape (http://www.inkscape.org/) -->

<svg
   width="338.66666mm"
   height="105.83333mm"
   viewBox="0 0 338.66665 105.83333"
   version="1.1"
   id="svg5"
   xml:space="preserve"
   inkscape:version="1.2.2 (b0a8486541, 2022-12-01)"
   sodipodi:docname="research_header.svg"
   inkscape:export-filename="../assets/images/research/research_header.jpg"
   inkscape:export-xdpi="192"
   inkscape:export-ydpi="192"
   xmlns:inkscape="http://www.inkscape.org/namespaces/inkscape"
   xmlns:sodipodi="http://sodipodi.sourceforge.net/DTD/sodipodi-0.dtd"
   xmlns="http://www.w3.org/2000/svg"
   xmlns:svg="http://www.w3.org/2000/svg"><sodipodi:namedview
     id="namedview7"
     pagecolor="#ffffff"
     bordercolor="#cccccc"
     borderopacity="1"
     inkscape:showpageshadow="0"
     inkscape:pageopacity="1"
     inkscape:pagecheckerboard="0"
     inkscape:deskcolor="#d1d1d1"
     inkscape:document-units="mm"
     showgrid="false"
     inkscape:zoom="0.86885742"
     inkscape:cx="813.71233"
     inkscape:cy="182.99896"
     inkscape:window-width="1920"
     inkscape:window-height="1019"
     inkscape:window-x="1920"
     inkscape:window-y="151"
     inkscape:window-maximized="1"
     inkscape:current-layer="layer1" /><defs
     id="defs2"><clipPath
       clipPathUnits="userSpaceOnUse"
       id="clipPath396"><rect
         style="fill:none;stroke:#ffb800;stroke-width:1"
         id="rect398"
         width="239.2628"
         height="206.18117"
         x="-79.493225"
         y="-10.638616" /></clipPath><clipPath
       clipPathUnits="userSpaceOnUse"
       id="clipPath456"><rect
         style="fill:none;stroke:#000000;stroke-width:0.431468"
         id="rect458"
         width="234.48991"
         height="169.29317"
         x="-77.106773"
         y="26.251564" /></clipPath><clipPath
       clipPathUnits="userSpaceOnUse"
       id="clipPath23477"><rect
         style="fill:none;stroke:#000000;stroke-width:1"
         id="rect23479"
         width="325.15247"
         height="170.81572"
         x="520.01892"
         y="1.1134773" /></clipPath><clipPath
       clipPathUnits="userSpaceOnUse"
       id="clipPath356"><rect
         style="opacity:0.872155;fill:none;stroke:#000000;stroke-width:1.28622"
         id="rect358"
         width="545.43372"
         height="169.56375"
         x="608.29584"
         y="1.5548213" /></clipPath><clipPath
       clipPathUnits="userSpaceOnUse"
       id="clipPath360"><rect
         style="opacity:0.872155;fill:none;stroke:#000000;stroke-width:0.79675"
         id="rect362"
         width="337.86993"
         height="105.03658"
         x="497.31302"
         y="-16.094366" /></clipPath><clipPath
       clipPathUnits="userSpaceOnUse"
       id="clipPath2072"><rect
         style="fill:none;stroke:#000003;stroke-width:1;stroke-dasharray:none;stroke-opacity:1"
         id="rect2074"
         width="65.091446"
         height="112.53508"
         x="612.36987"
         y="138.35005" /></clipPath><clipPath
       clipPathUnits="userSpaceOnUse"
       id="clipPath2076"><rect
         style="fill:none;stroke:#000003;stroke-width:1;stroke-dasharray:none;stroke-opacity:1"
         id="rect2078"
         width="65.091446"
         height="112.53508"
         x="612.36987"
         y="138.35005" /></clipPath><clipPath
       clipPathUnits="userSpaceOnUse"
       id="clipPath2076-3"><rect
         style="fill:none;stroke:#000003;stroke-width:1;stroke-dasharray:none;stroke-opacity:1"
         id="rect2078-6"
         width="65.091446"
         height="112.53508"
         x="612.36987"
         y="138.35005" /></clipPath><clipPath
       clipPathUnits="userSpaceOnUse"
       id="clipPath2072-7"><rect
         style="fill:none;stroke:#000003;stroke-width:1;stroke-dasharray:none;stroke-opacity:1"
         id="rect2074-5"
         width="65.091446"
         height="112.53508"
         x="612.36987"
         y="138.35005" /></clipPath></defs><g
     inkscape:label="Layer 1"
     inkscape:groupmode="layer"
     id="layer1"
     transform="translate(-440.04256,-11.381905)"><g
       id="g13193"
       transform="matrix(0.26458333,0,0,0.26458333,440.04256,11.381905)"><path
         d="M 1189,400 H 933 v -17 h 128 v -18 h 141 v -17 h -102 v -18 h 128 v -17 h -13 V 296 H 793 v -18 h 140 v -17 h 13 v -18 h 77 v -17 h -26 v -17 h 13 V 191 H 857 v -17 h 243 V 157 H 959 v -18 h 179 v -17 h 64 V 104 H 1061 V 87 H 895 V 70 H 882 V 52 h 141 V 35 h 256 V 17 h -51 V 0 h 52 v 17 0 18 0 17 0 18 0 17 0 17 0 18 0 17 0 18 0 17 0 17 0 18 0 17 0 17 0 18 0 17 0 18 0 17 0 17 0 18 0 17 0 18 0 17 0 z"
         fill="#72945b"
         id="path13152" /><path
         d="M 1087,400 H 882 v -17 h 141 v -18 h 77 v -17 h -26 v -18 h 115 v -17 h -64 V 296 H 793 v -18 h 64 v -17 h 89 v -18 h -13 v -17 h 64 v -17 0 -18 H 767 v -17 h 307 V 157 H 921 v -18 h 204 v -17 h -12 V 104 H 1010 V 87 H 857 V 70 H 780 V 52 H 985 V 35 h 230 V 17 h -64 V 0 h 78 v 17 h 51 V 35 H 1024 V 52 H 883 v 18 h 13 v 17 h 166 v 17 h 141 v 18 h -64 v 17 H 960 v 18 h 141 v 17 H 858 v 17 h 153 v 18 h -13 v 17 h 26 v 17 h -77 v 18 h -13 v 17 H 794 v 18 h 422 v 17 h 13 v 17 h -128 v 18 h 102 v 17 h -141 v 18 H 934 v 17 h 256 z"
         fill="#38785d"
         id="path13154" /><path
         d="M 1074,400 H 869 v -17 h 26 v -18 h 179 V 348 H 895 v -18 h 282 v -17 h -64 V 296 H 767 v -18 h 13 V 261 H 895 V 243 H 831 V 226 H 933 V 209 H 921 V 191 H 690 v -17 h 384 V 157 H 793 v -18 h 217 v -17 h 64 V 104 H 921 V 87 H 780 V 70 H 729 V 52 H 895 V 35 h 282 V 17 H 1023 V 0 h 129 v 17 h 64 V 35 H 986 V 52 H 781 v 18 h 77 v 17 h 153 v 17 h 103 v 18 h 12 v 17 H 922 v 18 h 153 v 17 H 768 v 17 h 230 v 18 0 17 h -64 v 17 h 13 v 18 h -89 v 17 h -64 v 18 h 332 v 17 h 64 v 17 h -115 v 18 h 26 v 17 h -77 v 18 H 883 v 17 h 205 z"
         fill="#065958"
         id="path13156" /><path
         d="M 1023,400 H 729 v -17 h 38 V 365 H 946 V 348 H 844 v -18 h 205 V 313 H 985 V 296 H 639 v -18 h 38 V 261 H 882 V 243 H 831 V 226 H 780 V 209 H 908 V 191 H 639 V 174 H 959 V 157 H 677 v -18 h 167 v -17 h 179 V 104 H 908 V 87 H 690 V 70 h 39 V 52 H 857 V 35 h 256 V 17 H 997 V 0 h 27 v 17 h 154 V 35 H 896 V 52 H 730 v 18 h 51 v 17 h 141 v 17 h 153 v 18 h -64 v 17 H 794 v 18 h 281 v 17 H 691 v 17 h 231 v 18 h 12 v 17 H 832 v 17 h 64 v 18 H 781 v 17 h -13 v 18 h 346 v 17 h 64 v 17 H 896 v 18 h 179 v 17 H 896 v 18 h -26 v 17 h 205 z"
         fill="#003a48"
         id="path13158" /><path
         d="m 549,400 h -76 v -17 h -26 v -18 h 230 v -17 h 13 V 330 H 473 v -17 h 51 v -17 h 89 V 278 H 549 V 261 H 652 V 243 H 549 V 226 H 447 V 209 H 703 V 191 H 626 V 174 H 601 V 157 H 498 V 139 H 191 v -17 h 563 v -18 h 13 V 87 H 485 V 70 H 613 V 52 h 13 V 35 H 729 V 17 H 575 V 0 h 423 v 17 h 116 V 35 H 858 V 52 H 730 v 18 h -39 v 17 h 218 v 17 h 115 v 18 H 845 v 17 H 678 v 18 h 282 v 17 H 640 v 17 h 269 v 18 H 781 v 17 h 51 v 17 h 51 v 18 H 678 v 17 h -38 v 18 h 346 v 17 h 64 v 17 H 845 v 18 h 102 v 17 H 768 v 18 h -38 v 17 h 294 z"
         fill="#001d2e"
         id="path13160" /><path
         d="m 383,400 h 13 v -17 h -90 v -18 h 231 v -17 h 25 V 330 H 434 V 313 H 409 V 296 H 549 V 278 H 434 v -17 h -13 v -18 h 77 v -17 h -89 v -17 h 51 v -18 h -13 v -17 h 13 V 157 H 421 V 139 H 165 V 122 H 434 V 104 H 601 V 87 H 319 V 70 h 51 V 52 H 613 V 35 H 575 V 17 H 409 V 0 H 576 V 17 H 730 V 35 H 627 V 52 H 614 V 70 H 486 v 17 h 282 v 17 h -13 v 18 H 192 v 17 h 307 v 18 h 103 v 17 h 25 v 17 h 77 v 18 H 448 v 17 h 102 v 17 h 103 v 18 H 550 v 17 h 64 v 18 h -89 v 17 h -51 v 17 h 217 v 18 h -13 v 17 H 448 v 18 h 26 v 17 h 76 z"
         fill="#001122"
         id="path13162" /><path
         d="M 383,400 H 268 v -17 h 25 v -18 h 116 v -17 h 51 V 330 H 332 v -17 h 38 v -17 h 64 V 278 H 332 v -17 h 51 v -18 h 38 V 226 H 281 v -17 h 115 v -18 h -39 v -17 h 39 v -17 h 13 V 139 H 127 V 122 H 383 V 104 H 485 V 87 H 319 V 70 H 242 V 52 H 613 V 35 H 562 V 17 H 370 V 0 h 40 v 17 h 166 v 18 h 38 V 52 H 371 v 18 h -51 v 17 h 282 v 17 H 435 v 18 H 166 v 17 h 256 v 18 h 39 v 17 h -13 v 17 h 13 v 18 h -51 v 17 h 89 v 17 h -77 v 18 h 13 v 17 h 115 v 18 H 410 v 17 h 25 v 17 h 128 v 18 h -25 v 17 H 307 v 18 h 90 v 17 h -13 z"
         fill="#001122"
         id="path13164" /><path
         d="M 370,400 H 268 v -17 h -77 v -18 h 192 v -17 h 26 V 330 H 229 v -17 h 77 V 296 H 421 V 278 H 268 v -17 h 25 v -18 h 90 V 226 H 204 v -17 h 141 v -18 h -90 v -17 h 77 v -17 h 64 V 139 H 101 v -17 h 231 v -18 h 77 V 87 H 319 V 70 H 229 V 52 H 549 V 35 H 485 V 17 H 357 V 0 h 14 v 17 h 192 v 18 h 51 V 52 H 243 v 18 h 77 v 17 h 166 v 17 H 384 v 18 H 128 v 17 h 282 v 18 h -13 v 17 h -39 v 17 h 39 v 18 H 282 v 17 h 140 v 17 h -38 v 18 h -51 v 17 h 102 v 18 h -64 v 17 h -38 v 17 h 128 v 18 h -51 v 17 H 294 v 18 h -25 v 17 h 115 z"
         fill="#001d2e"
         id="path13166" /><path
         d="M 293,400 H 255 V 383 H 101 V 365 H 281 V 348 H 396 V 330 H 165 v -17 h 90 V 296 H 421 V 278 H 178 v -17 h 77 v -18 h 13 V 226 H 153 V 209 H 319 V 191 H 204 v -17 h 128 v -17 0 -18 H 89 v -17 h 153 v -18 h 51 V 87 H 281 V 70 H 178 V 52 H 434 V 35 H 383 V 17 H 319 V 0 h 39 v 17 h 128 v 18 h 64 V 52 H 230 v 18 h 90 v 17 h 90 v 17 h -77 v 18 H 102 v 17 h 295 v 18 h -64 v 17 h -77 v 17 h 90 v 18 H 205 v 17 h 179 v 17 h -90 v 18 h -25 v 17 h 153 v 18 H 307 v 17 h -77 v 17 h 180 v 18 h -26 v 17 H 192 v 18 h 77 v 17 h 102 z"
         fill="#003a48"
         id="path13168" /><path
         d="M 242,400 H 153 V 383 H 63 v -18 h 166 v -17 h 52 V 330 H 101 v -17 h 103 v -17 h 77 V 278 H 101 V 261 H 25 v -18 h 140 v -17 h -38 v -17 h 38 V 191 H 76 v -17 h 153 v -17 h 90 V 139 H 63 v -17 h 179 v -18 h 13 V 87 H 63 V 70 h 64 V 52 H 281 V 35 H 217 V 17 H 153 V 0 h 167 v 17 h 64 v 18 h 51 V 52 H 179 v 18 h 103 v 17 h 12 v 17 h -51 v 18 H 90 v 17 h 243 v 18 0 17 H 205 v 17 h 115 v 18 H 154 v 17 h 115 v 17 h -13 v 18 h -77 v 17 h 243 v 18 H 256 v 17 h -90 v 17 h 231 v 18 H 282 v 17 H 102 v 18 h 154 v 17 h 38 z"
         fill="#065958"
         id="path13170" /><path
         d="M 165,400 H 76 V 383 H 37 v -18 h 141 v -17 h 26 V 330 H 63 v -17 h 51 v -17 h 26 V 278 H 0 v -17 h 12 v -18 h 102 v -17 h 13 V 209 H 63 V 191 H 25 v -17 h 140 v -17 h 90 V 139 H 12 v -17 h 153 v -18 h 64 V 87 H 50 V 70 H 89 V 52 H 204 V 35 35 17 H 76 V 0 h 78 v 17 h 64 v 18 h 64 V 52 H 128 V 70 H 64 v 17 h 192 v 17 h -13 v 18 H 64 v 17 h 256 v 18 h -90 v 17 H 77 v 17 h 89 v 18 h -38 v 17 h 38 v 17 H 26 v 18 h 76 v 17 h 180 v 18 h -77 v 17 H 102 v 17 h 180 v 18 h -52 v 17 H 64 v 18 h 90 v 17 h 89 z"
         fill="#38785d"
         id="path13172" /><path
         d="m 0,400 v 0 -17 0 -18 0 -17 0 -18 0 -17 0 -17 0 -18 0 -17 0 -18 0 -17 0 -17 0 -18 0 -17 0 -17 0 -18 0 -17 0 -18 0 -17 0 -17 0 -18 0 -17 0 -18 0 -17 h 77 v 17 h 128 v 18 0 17 H 90 V 70 H 51 v 17 h 179 v 17 h -64 v 18 H 13 v 17 h 243 v 18 h -90 v 17 H 26 v 17 h 38 v 18 h 64 v 17 h -13 v 17 H 13 v 18 H 0 v 17 h 141 v 18 h -26 v 17 H 64 v 17 h 141 v 18 h -26 v 17 H 38 v 18 h 39 v 17 h 89 z"
         fill="#72945b"
         id="path13174" /></g></g></svg>
