<?xml version="1.0" encoding="UTF-8" standalone="no"?>
<!-- Created with Inkscape (http://www.inkscape.org/) -->

<svg
   width="338.66666mm"
   height="105.83334mm"
   viewBox="0 0 338.66666 105.83333"
   version="1.1"
   id="svg4026"
   xml:space="preserve"
   inkscape:version="1.2.2 (b0a8486541, 2022-12-01)"
   sodipodi:docname="seminars_header.svg"
   inkscape:export-filename="../assets/images/seminars/seminars_header.jpg"
   inkscape:export-xdpi="120"
   inkscape:export-ydpi="120"
   xmlns:inkscape="http://www.inkscape.org/namespaces/inkscape"
   xmlns:sodipodi="http://sodipodi.sourceforge.net/DTD/sodipodi-0.dtd"
   xmlns="http://www.w3.org/2000/svg"
   xmlns:svg="http://www.w3.org/2000/svg"><sodipodi:namedview
     id="namedview4028"
     pagecolor="#ffffff"
     bordercolor="#000000"
     borderopacity="0.25"
     inkscape:showpageshadow="2"
     inkscape:pageopacity="0.0"
     inkscape:pagecheckerboard="0"
     inkscape:deskcolor="#d1d1d1"
     inkscape:document-units="mm"
     showgrid="false"
     inkscape:zoom="1.0341572"
     inkscape:cx="726.67869"
     inkscape:cy="386.78839"
     inkscape:window-width="1920"
     inkscape:window-height="1019"
     inkscape:window-x="1920"
     inkscape:window-y="151"
     inkscape:window-maximized="1"
     inkscape:current-layer="layer1" /><defs
     id="defs4023"><clipPath
       clipPathUnits="userSpaceOnUse"
       id="clipPath4200"><rect
         style="opacity:1;fill:none;fill-opacity:1;stroke:#0000ff;stroke-width:1.00471;stroke-dasharray:none;stroke-opacity:1"
         id="rect4202"
         width="248.70361"
         height="225.25525"
         x="1.9128362"
         y="24.716219" /></clipPath><clipPath
       clipPathUnits="userSpaceOnUse"
       id="clipPath4204"><rect
         style="fill:none;fill-opacity:1;stroke:#0000ff;stroke-width:0.955027;stroke-dasharray:none;stroke-opacity:1"
         id="rect4206"
         width="248.7533"
         height="203.48776"
         x="418.0256"
         y="-275.17395" /></clipPath><clipPath
       clipPathUnits="userSpaceOnUse"
       id="clipPath4292"><rect
         style="opacity:1;fill:none;fill-opacity:1;stroke:#0000ff;stroke-width:0.991894;stroke-dasharray:none;stroke-opacity:1"
         id="rect4294"
         width="497.44022"
         height="193.011"
         x="-246.8197"
         y="30.260044" /></clipPath><clipPath
       clipPathUnits="userSpaceOnUse"
       id="clipPath4872"><rect
         style="fill:none;fill-opacity:1;stroke:#404040;stroke-width:1.00743;stroke-dasharray:none;stroke-opacity:1"
         id="rect4874"
         width="423.5997"
         height="176.21848"
         x="-672.9444"
         y="290.31802" /></clipPath><clipPath
       clipPathUnits="userSpaceOnUse"
       id="clipPath8167"><rect
         style="opacity:1;fill:none;fill-opacity:1;stroke:#000000;stroke-width:0.815081;stroke-dasharray:none;stroke-opacity:1"
         id="rect8169"
         width="186.63562"
         height="66.117355"
         x="-492.50497"
         y="319.28839" /></clipPath><clipPath
       clipPathUnits="userSpaceOnUse"
       id="clipPath8167-5"><rect
         style="opacity:1;fill:none;fill-opacity:1;stroke:#000000;stroke-width:0.815081;stroke-dasharray:none;stroke-opacity:1"
         id="rect8169-6"
         width="186.63562"
         height="66.117355"
         x="-492.50497"
         y="319.28839" /></clipPath><clipPath
       clipPathUnits="userSpaceOnUse"
       id="clipPath10192"><rect
         style="opacity:0.872155;fill:none;stroke:#000000;stroke-width:0.856001"
         id="rect10194"
         width="93.31781"
         height="132.23474"
         x="-399.18716"
         y="253.17102" /></clipPath><clipPath
       clipPathUnits="userSpaceOnUse"
       id="clipPath10196"><rect
         style="opacity:0.872155;fill:none;stroke:#000000;stroke-width:0.856001"
         id="rect10198"
         width="93.31781"
         height="132.23474"
         x="-492.50497"
         y="319.28839" /></clipPath><clipPath
       clipPathUnits="userSpaceOnUse"
       id="clipPath12775"><rect
         style="opacity:0.516219;fill:none;stroke:#000000;stroke-width:1"
         id="rect12777"
         width="37.861115"
         height="120.58374"
         x="-518.41608"
         y="451.70251" /></clipPath><clipPath
       clipPathUnits="userSpaceOnUse"
       id="clipPath12779"><rect
         style="opacity:0.516219;fill:none;stroke:#000000;stroke-width:1"
         id="rect12781"
         width="37.861115"
         height="120.58374"
         x="-518.41608"
         y="451.70251" /></clipPath><clipPath
       clipPathUnits="userSpaceOnUse"
       id="clipPath12785"><rect
         style="opacity:0.516219;fill:none;stroke:#000000;stroke-width:0.99555"
         id="rect12787"
         width="61.917824"
         height="60.296322"
         x="-422.27524"
         y="569.64246" /></clipPath><clipPath
       clipPathUnits="userSpaceOnUse"
       id="clipPath12791"><rect
         style="opacity:0.516219;fill:none;stroke:#000000;stroke-width:1"
         id="rect12793"
         width="61.917824"
         height="16.043221"
         x="-422.27527"
         y="590.91907" /></clipPath><clipPath
       clipPathUnits="userSpaceOnUse"
       id="clipPath12964"><rect
         style="opacity:0.516219;fill:none;stroke:#000000;stroke-width:1"
         id="rect12966"
         width="158.79883"
         height="107.01836"
         x="-502.95761"
         y="444.24463" /></clipPath></defs><g
     inkscape:label="Layer 1"
     inkscape:groupmode="layer"
     id="layer1"
     transform="translate(673.7328,-321.52022)"><g
       id="g69995"
       transform="matrix(0.3762963,0,0,0.35277778,-673.7328,321.52022)"><path
         d="m 827,300 h 63 v -14 h -81 v -13 h 45 v -14 h 18 v -14 h -45 v -13 h 63 v -14 h -36 v -13 h -45 v -14 h -9 v -14 h 63 v -13 h -9 v -14 0 -14 h 36 v -13 0 -14 H 800 V 95 h 45 V 82 H 809 V 68 h 54 V 55 h 9 V 41 H 800 V 27 h 63 V 14 H 845 V 0 h 55 v 14 0 13 0 14 0 14 0 13 0 14 0 13 0 14 0 14 0 13 0 14 0 14 0 13 0 14 0 14 0 13 0 14 0 13 0 14 0 14 0 13 0 14 0 z"
         fill="#888277"
         id="path69954" /><path
         d="m 764,300 h 117 v -14 h -99 v -13 h 18 v -14 h 18 v -14 h 9 v -13 h 54 v -14 h -63 v -13 h -36 v -14 h 9 v -14 h 18 v -13 h 9 v -14 h -18 v -14 h 45 V 123 H 827 V 109 H 746 V 95 h 72 V 82 H 746 V 68 h 72 V 55 h 27 V 41 H 764 V 27 h 36 V 14 h 36 V 0 h 10 v 14 h 18 v 13 h -63 v 14 h 72 v 14 h -9 v 13 h -54 v 14 h 36 v 13 h -45 v 14 h 90 v 14 0 13 h -36 v 14 0 14 h 9 v 13 h -63 v 14 h 9 v 14 h 45 v 13 h 36 v 14 h -63 v 13 h 45 v 14 h -18 v 14 h -45 v 13 h 81 v 14 h -63 z"
         fill="#73635c"
         id="path69956" /><path
         d="m 710,300 h 126 v -14 h -63 v -13 h 18 v -14 h 9 v -14 0 -13 h 54 v -14 h -99 v -13 h -27 v -14 h -18 v -14 h 63 v -13 h 27 v -14 h -72 v -14 h 81 v -13 0 -14 H 737 V 95 h 63 V 82 H 683 V 68 h 45 V 55 H 836 V 41 H 683 V 27 h 63 V 14 h 81 V 0 h 10 v 14 h -36 v 13 h -36 v 14 h 81 v 14 h -27 v 13 h -72 v 14 h 72 v 13 h -72 v 14 h 81 v 14 h 18 v 13 h -45 v 14 h 18 v 14 h -9 v 13 h -18 v 14 h -9 v 14 h 36 v 13 h 63 v 14 h -54 v 13 h -9 v 14 h -18 v 14 h -18 v 13 h 99 v 14 H 765 Z"
         fill="#5b4549"
         id="path69958" /><path
         d="m 638,300 h 135 v -14 h -27 v -13 h 27 V 259 H 638 v -14 h 54 v -13 h -18 v -14 h 36 V 205 H 647 V 191 H 575 V 177 H 692 V 164 H 575 v -14 h 81 v -14 h -45 v -13 h 54 V 109 H 611 V 95 h 99 V 82 H 584 V 68 H 692 V 55 H 674 V 41 H 521 V 27 H 692 V 14 H 593 V 0 H 828 V 14 H 747 V 27 H 684 V 41 H 837 V 55 H 729 v 13 h -45 v 14 h 117 v 13 h -63 v 14 h 72 v 14 0 13 h -81 v 14 h 72 v 14 h -27 v 13 h -63 v 14 h 18 v 14 h 27 v 13 h 99 v 14 h -54 v 13 0 14 h -9 v 14 h -18 v 13 h 63 v 14 H 711 Z"
         fill="#3b2d3b"
         id="path69960" /><path
         d="m 476,300 h 189 v -14 h -81 v -13 h -18 v -14 h -45 v -14 h -54 v -13 h 90 v -14 h 72 V 205 H 449 V 191 H 314 v -14 h 126 v -13 h 45 V 150 H 359 v -14 h 198 v -13 h 54 V 109 H 494 V 95 H 449 V 82 H 368 V 68 h 72 V 55 h 9 V 41 H 422 V 27 H 359 V 14 h 99 V 0 h 136 v 14 h 99 V 27 H 522 v 14 h 153 v 14 h 18 V 68 H 585 v 14 h 126 v 13 h -99 v 14 h 54 v 14 h -54 v 13 h 45 v 14 h -81 v 14 h 117 v 13 H 576 v 14 h 72 v 14 h 63 v 13 h -36 v 14 h 18 v 13 h -54 v 14 h 135 v 14 h -27 v 13 h 27 v 14 H 639 Z"
         fill="#15192a"
         id="path69962" /><path
         d="m 458,300 h 180 v -14 h -99 v -13 h -18 v -14 h -27 v -14 h -81 v -13 h 99 V 218 H 629 V 205 H 404 v -14 h -99 v -14 h 90 v -13 h 63 V 150 H 323 v -14 h 189 v -13 h 63 V 109 H 467 V 95 H 440 V 82 H 359 V 68 h 63 V 55 h 18 V 41 H 377 V 27 H 350 V 14 h 54 V 0 h 55 v 14 h -99 v 13 h 63 v 14 h 27 v 14 h -9 v 13 h -72 v 14 h 81 v 13 h 45 v 14 h 117 v 14 h -54 v 13 H 360 v 14 h 126 v 14 h -45 v 13 H 315 v 14 h 135 v 14 h 180 v 13 h -72 v 14 h -90 v 13 h 54 v 14 h 45 v 14 h 18 v 13 h 81 v 14 H 477 Z"
         fill="#001122"
         id="path69964" /><path
         d="M 422,300 H 602 V 286 H 485 v -13 h 9 V 259 H 368 V 245 H 323 V 232 H 440 V 218 H 566 V 205 H 359 v -14 h -81 v -14 h -9 V 164 H 422 V 150 H 251 v -14 h 117 v -13 h 72 V 109 H 368 V 95 h 18 V 82 H 305 V 68 h 63 V 55 H 314 V 41 h 18 V 27 H 260 V 14 h 90 V 0 h 55 v 14 h -54 v 13 h 27 v 14 h 63 v 14 h -18 v 13 h -63 v 14 h 81 v 13 h 27 v 14 h 108 v 14 h -63 v 13 H 324 v 14 h 135 v 14 h -63 v 13 h -90 v 14 h 99 v 14 h 225 v 13 H 513 v 14 h -99 v 13 h 81 v 14 h 27 v 14 h 18 v 13 h 99 v 14 H 459 Z"
         fill="#001122"
         id="path69966" /><path
         d="m 116,300 h 108 v -14 0 -13 h -18 v -14 h 45 v -14 h -63 v -13 h 72 v -14 0 -13 h -9 V 191 H 188 V 177 H 71 V 164 H 215 V 150 H 188 V 136 H 89 V 123 H 242 V 109 H 206 V 95 H 161 V 82 H 269 V 68 H 233 V 55 H 206 V 41 H 143 V 27 h 36 V 14 H 134 V 0 h 217 v 14 h -90 v 13 h 72 v 14 h -18 v 14 h 54 v 13 h -63 v 14 h 81 v 13 h -18 v 14 h 72 v 14 h -72 v 13 H 252 v 14 h 171 v 14 H 270 v 13 h 9 v 14 h 81 v 14 h 207 v 13 H 441 v 14 H 324 v 13 h 45 v 14 h 126 v 14 h -9 v 13 h 117 v 14 H 423 Z"
         fill="#15192a"
         id="path69968" /><path
         d="m 89,300 h 72 v -14 h 36 v -13 h -72 v -14 h 36 v -14 h 18 v -13 0 -14 h 45 V 205 H 98 V 191 H 53 V 177 H 26 v -13 h 36 v -14 h 54 V 136 H 62 v -13 h 27 v -14 0 -14 h 54 V 82 h 54 V 68 H 152 V 55 H 134 V 41 41 27 h 9 V 14 H 107 V 0 h 28 v 14 h 45 v 13 h -36 v 14 h 63 v 14 h 27 v 13 h 36 V 82 H 162 v 13 h 45 v 14 h 36 v 14 H 90 v 13 h 99 v 14 h 27 v 14 H 72 v 13 h 117 v 14 h 63 v 14 h 9 v 13 0 14 h -72 v 13 h 63 v 14 h -45 v 14 h 18 v 13 0 14 H 117 Z"
         fill="#3b2d3b"
         id="path69970" /><path
         d="m 62,300 h 72 v -14 h 9 V 273 H 89 v -14 h 72 v -14 h 9 v -13 h 9 V 218 H 161 V 205 H 80 V 191 H 26 V 177 H 17 V 164 H 53 V 150 H 71 V 136 H 35 v -13 h 45 v -14 0 -14 h 63 V 82 h -9 V 68 H 116 V 55 H 71 V 41 H 98 V 27 H 80 V 14 h 9 V 0 h 19 v 14 h 36 v 13 h -9 v 14 0 14 h 18 v 13 h 45 V 82 H 144 V 95 H 90 v 14 0 14 H 63 v 13 h 54 v 14 H 63 v 14 H 27 v 13 h 27 v 14 h 45 v 14 h 126 v 13 h -45 v 14 0 13 h -18 v 14 h -36 v 14 h 72 v 13 h -36 v 14 H 90 Z"
         fill="#5b4549"
         id="path69972" /><path
         d="m 35,300 h 36 v -14 0 -13 H 53 v -14 h 27 v -14 h -9 v -13 h 9 v -14 0 -13 H 62 V 191 H 8 v -14 0 -13 H 44 V 150 H 62 V 136 H 17 V 123 H 35 V 109 H 17 V 95 H 62 V 82 82 68 H 26 V 55 55 41 H 44 V 27 H 71 V 14 H 8 V 0 H 90 V 14 H 81 V 27 H 99 V 41 H 72 v 14 h 45 v 13 h 18 v 14 h 9 V 95 H 81 v 14 0 14 H 36 v 13 h 36 v 14 H 54 v 14 H 18 v 13 h 9 v 14 h 54 v 14 h 81 v 13 h 18 v 14 h -9 v 13 h -9 v 14 H 90 v 14 h 54 v 13 h -9 v 14 H 63 Z"
         fill="#73635c"
         id="path69974" /><path
         d="m 0,300 v 0 -14 0 -13 0 -14 0 -14 0 -13 0 -14 0 -13 0 -14 0 -14 0 -13 0 -14 0 -14 0 -13 0 -14 0 V 95 95 82 82 68 68 55 55 41 41 27 27 14 14 0 H 9 V 14 H 72 V 27 H 45 V 41 H 27 v 14 0 13 h 36 v 14 0 13 H 18 v 14 h 18 v 14 H 18 v 13 h 45 v 14 H 45 v 14 H 9 v 13 0 14 h 54 v 14 h 18 v 13 0 14 h -9 v 13 h 9 v 14 H 54 v 14 h 18 v 13 0 14 H 36 Z"
         fill="#888277"
         id="path69976" /></g></g></svg>
