<?xml version="1.0" encoding="UTF-8" standalone="no"?>
<!-- Created with Inkscape (http://www.inkscape.org/) -->

<svg
   width="338.66666mm"
   height="105.83334mm"
   viewBox="0 0 338.66666 105.83334"
   version="1.1"
   id="svg4026"
   xml:space="preserve"
   inkscape:version="1.2.2 (b0a8486541, 2022-12-01)"
   sodipodi:docname="teaching_header.svg"
   inkscape:export-filename="../assets/images/teaching/teaching_header.jpg"
   inkscape:export-xdpi="192"
   inkscape:export-ydpi="192"
   xmlns:inkscape="http://www.inkscape.org/namespaces/inkscape"
   xmlns:sodipodi="http://sodipodi.sourceforge.net/DTD/sodipodi-0.dtd"
   xmlns="http://www.w3.org/2000/svg"
   xmlns:svg="http://www.w3.org/2000/svg"><sodipodi:namedview
     id="namedview4028"
     pagecolor="#ffffff"
     bordercolor="#000000"
     borderopacity="0.25"
     inkscape:showpageshadow="2"
     inkscape:pageopacity="0.0"
     inkscape:pagecheckerboard="0"
     inkscape:deskcolor="#d1d1d1"
     inkscape:document-units="mm"
     showgrid="false"
     inkscape:zoom="1.2830149"
     inkscape:cx="898.27484"
     inkscape:cy="292.28032"
     inkscape:window-width="1920"
     inkscape:window-height="1019"
     inkscape:window-x="1920"
     inkscape:window-y="151"
     inkscape:window-maximized="1"
     inkscape:current-layer="layer1" /><defs
     id="defs4023"><inkscape:path-effect
       effect="spiro"
       id="path-effect410"
       is_visible="true"
       lpeversion="1" /><clipPath
       clipPathUnits="userSpaceOnUse"
       id="clipPath4200"><rect
         style="opacity:1;fill:none;fill-opacity:1;stroke:#0000ff;stroke-width:1.00471;stroke-dasharray:none;stroke-opacity:1"
         id="rect4202"
         width="248.70361"
         height="225.25525"
         x="1.9128362"
         y="24.716219" /></clipPath><clipPath
       clipPathUnits="userSpaceOnUse"
       id="clipPath4204"><rect
         style="fill:none;fill-opacity:1;stroke:#0000ff;stroke-width:0.955027;stroke-dasharray:none;stroke-opacity:1"
         id="rect4206"
         width="248.7533"
         height="203.48776"
         x="418.0256"
         y="-275.17395" /></clipPath><clipPath
       clipPathUnits="userSpaceOnUse"
       id="clipPath4292"><rect
         style="opacity:1;fill:none;fill-opacity:1;stroke:#0000ff;stroke-width:0.991894;stroke-dasharray:none;stroke-opacity:1"
         id="rect4294"
         width="497.44022"
         height="193.011"
         x="-246.8197"
         y="30.260044" /></clipPath><clipPath
       clipPathUnits="userSpaceOnUse"
       id="clipPath4872"><rect
         style="fill:none;fill-opacity:1;stroke:#404040;stroke-width:1.00743;stroke-dasharray:none;stroke-opacity:1"
         id="rect4874"
         width="423.5997"
         height="176.21848"
         x="-672.9444"
         y="290.31802" /></clipPath><clipPath
       clipPathUnits="userSpaceOnUse"
       id="clipPath8167"><rect
         style="opacity:1;fill:none;fill-opacity:1;stroke:#000000;stroke-width:0.815081;stroke-dasharray:none;stroke-opacity:1"
         id="rect8169"
         width="186.63562"
         height="66.117355"
         x="-492.50497"
         y="319.28839" /></clipPath><clipPath
       clipPathUnits="userSpaceOnUse"
       id="clipPath8167-5"><rect
         style="opacity:1;fill:none;fill-opacity:1;stroke:#000000;stroke-width:0.815081;stroke-dasharray:none;stroke-opacity:1"
         id="rect8169-6"
         width="186.63562"
         height="66.117355"
         x="-492.50497"
         y="319.28839" /></clipPath><clipPath
       clipPathUnits="userSpaceOnUse"
       id="clipPath10192"><rect
         style="opacity:0.872155;fill:none;stroke:#000000;stroke-width:0.856001"
         id="rect10194"
         width="93.31781"
         height="132.23474"
         x="-399.18716"
         y="253.17102" /></clipPath><clipPath
       clipPathUnits="userSpaceOnUse"
       id="clipPath10196"><rect
         style="opacity:0.872155;fill:none;stroke:#000000;stroke-width:0.856001"
         id="rect10198"
         width="93.31781"
         height="132.23474"
         x="-492.50497"
         y="319.28839" /></clipPath><clipPath
       clipPathUnits="userSpaceOnUse"
       id="clipPath10196-3"><rect
         style="opacity:0.872155;fill:none;stroke:#000000;stroke-width:0.856001"
         id="rect10198-6"
         width="93.31781"
         height="132.23474"
         x="-492.50497"
         y="319.28839" /></clipPath><clipPath
       clipPathUnits="userSpaceOnUse"
       id="clipPath10192-7"><rect
         style="opacity:0.872155;fill:none;stroke:#000000;stroke-width:0.856001"
         id="rect10194-5"
         width="93.31781"
         height="132.23474"
         x="-399.18716"
         y="253.17102" /></clipPath><clipPath
       clipPathUnits="userSpaceOnUse"
       id="clipPath10196-6"><rect
         style="opacity:0.872155;fill:none;stroke:#000000;stroke-width:0.856001"
         id="rect10198-2"
         width="93.31781"
         height="132.23474"
         x="-492.50497"
         y="319.28839" /></clipPath><clipPath
       clipPathUnits="userSpaceOnUse"
       id="clipPath10192-9"><rect
         style="opacity:0.872155;fill:none;stroke:#000000;stroke-width:0.856001"
         id="rect10194-1"
         width="93.31781"
         height="132.23474"
         x="-399.18716"
         y="253.17102" /></clipPath></defs><g
     inkscape:label="Layer 1"
     inkscape:groupmode="layer"
     id="layer1"
     transform="translate(673.67979,-305.92288)"><g
       id="g9323"
       transform="matrix(0.26458333,0,0,0.26458333,-673.67979,305.92289)"><path
         d="M 1189,400 H 933 v -17 h 128 v -18 h 141 v -17 h -102 v -18 h 128 v -17 h -13 V 296 H 793 v -18 h 140 v -17 h 13 v -18 h 77 v -17 h -26 v -17 h 13 V 191 H 857 v -17 h 243 V 157 H 959 v -18 h 179 v -17 h 64 V 104 H 1061 V 87 H 895 V 70 H 882 V 52 h 141 V 35 h 256 V 17 h -51 V 0 h 52 v 17 0 18 0 17 0 18 0 17 0 17 0 18 0 17 0 18 0 17 0 17 0 18 0 17 0 17 0 18 0 17 0 18 0 17 0 17 0 18 0 17 0 18 0 17 0 z"
         fill="#c62368"
         id="path9282" /><path
         d="M 1087,400 H 882 v -17 h 141 v -18 h 77 v -17 h -26 v -18 h 115 v -17 h -64 V 296 H 793 v -18 h 64 v -17 h 89 v -18 h -13 v -17 h 64 v -17 0 -18 H 767 v -17 h 307 V 157 H 921 v -18 h 204 v -17 h -12 V 104 H 1010 V 87 H 857 V 70 H 780 V 52 H 985 V 35 h 230 V 17 h -64 V 0 h 78 v 17 h 51 V 35 H 1024 V 52 H 883 v 18 h 13 v 17 h 166 v 17 h 141 v 18 h -64 v 17 H 960 v 18 h 141 v 17 H 858 v 17 h 153 v 18 h -13 v 17 h 26 v 17 h -77 v 18 h -13 v 17 H 794 v 18 h 422 v 17 h 13 v 17 h -128 v 18 h 102 v 17 h -141 v 18 H 934 v 17 h 256 z"
         fill="#912970"
         id="path9284" /><path
         d="M 1074,400 H 869 v -17 h 26 v -18 h 179 V 348 H 895 v -18 h 282 v -17 h -64 V 296 H 767 v -18 h 13 V 261 H 895 V 243 H 831 V 226 H 933 V 209 H 921 V 191 H 690 v -17 h 384 V 157 H 793 v -18 h 217 v -17 h 64 V 104 H 921 V 87 H 780 V 70 H 729 V 52 H 895 V 35 h 282 V 17 H 1023 V 0 h 129 v 17 h 64 V 35 H 986 V 52 H 781 v 18 h 77 v 17 h 153 v 17 h 103 v 18 h 12 v 17 H 922 v 18 h 153 v 17 H 768 v 17 h 230 v 18 0 17 h -64 v 17 h 13 v 18 h -89 v 17 h -64 v 18 h 332 v 17 h 64 v 17 h -115 v 18 h 26 v 17 h -77 v 18 H 883 v 17 h 205 z"
         fill="#5a2c68"
         id="path9286" /><path
         d="M 1023,400 H 729 v -17 h 38 V 365 H 946 V 348 H 844 v -18 h 205 V 313 H 985 V 296 H 639 v -18 h 38 V 261 H 882 V 243 H 831 V 226 H 780 V 209 H 908 V 191 H 639 V 174 H 959 V 157 H 677 v -18 h 167 v -17 h 179 V 104 H 908 V 87 H 690 V 70 h 39 V 52 H 857 V 35 h 256 V 17 H 997 V 0 h 27 v 17 h 154 V 35 H 896 V 52 H 730 v 18 h 51 v 17 h 141 v 17 h 153 v 18 h -64 v 17 H 794 v 18 h 281 v 17 H 691 v 17 h 231 v 18 h 12 v 17 H 832 v 17 h 64 v 18 H 781 v 17 h -13 v 18 h 346 v 17 h 64 v 17 H 896 v 18 h 179 v 17 H 896 v 18 h -26 v 17 h 205 z"
         fill="#282550"
         id="path9288" /><path
         d="m 549,400 h -76 v -17 h -26 v -18 h 230 v -17 h 13 V 330 H 473 v -17 h 51 v -17 h 89 V 278 H 549 V 261 H 652 V 243 H 549 V 226 H 447 V 209 H 703 V 191 H 626 V 174 H 601 V 157 H 498 V 139 H 191 v -17 h 563 v -18 h 13 V 87 H 485 V 70 H 613 V 52 h 13 V 35 H 729 V 17 H 575 V 0 h 423 v 17 h 116 V 35 H 858 V 52 H 730 v 18 h -39 v 17 h 218 v 17 h 115 v 18 H 845 v 17 H 678 v 18 h 282 v 17 H 640 v 17 h 269 v 18 H 781 v 17 h 51 v 17 h 51 v 18 H 678 v 17 h -38 v 18 h 346 v 17 h 64 v 17 H 845 v 18 h 102 v 17 H 768 v 18 h -38 v 17 h 294 z"
         fill="#061830"
         id="path9290" /><path
         d="m 383,400 h 13 v -17 h -90 v -18 h 231 v -17 h 25 V 330 H 434 V 313 H 409 V 296 H 549 V 278 H 434 v -17 h -13 v -18 h 77 v -17 h -89 v -17 h 51 v -18 h -13 v -17 h 13 V 157 H 421 V 139 H 165 V 122 H 434 V 104 H 601 V 87 H 319 V 70 h 51 V 52 H 613 V 35 H 575 V 17 H 409 V 0 H 576 V 17 H 730 V 35 H 627 V 52 H 614 V 70 H 486 v 17 h 282 v 17 h -13 v 18 H 192 v 17 h 307 v 18 h 103 v 17 h 25 v 17 h 77 v 18 H 448 v 17 h 102 v 17 h 103 v 18 H 550 v 17 h 64 v 18 h -89 v 17 h -51 v 17 h 217 v 18 h -13 v 17 H 448 v 18 h 26 v 17 h 76 z"
         fill="#001122"
         id="path9292" /><path
         d="M 383,400 H 268 v -17 h 25 v -18 h 116 v -17 h 51 V 330 H 332 v -17 h 38 v -17 h 64 V 278 H 332 v -17 h 51 v -18 h 38 V 226 H 281 v -17 h 115 v -18 h -39 v -17 h 39 v -17 h 13 V 139 H 127 V 122 H 383 V 104 H 485 V 87 H 319 V 70 H 242 V 52 H 613 V 35 H 562 V 17 H 370 V 0 h 40 v 17 h 166 v 18 h 38 V 52 H 371 v 18 h -51 v 17 h 282 v 17 H 435 v 18 H 166 v 17 h 256 v 18 h 39 v 17 h -13 v 17 h 13 v 18 h -51 v 17 h 89 v 17 h -77 v 18 h 13 v 17 h 115 v 18 H 410 v 17 h 25 v 17 h 128 v 18 h -25 v 17 H 307 v 18 h 90 v 17 h -13 z"
         fill="#001122"
         id="path9294" /><path
         d="M 370,400 H 268 v -17 h -77 v -18 h 192 v -17 h 26 V 330 H 229 v -17 h 77 V 296 H 421 V 278 H 268 v -17 h 25 v -18 h 90 V 226 H 204 v -17 h 141 v -18 h -90 v -17 h 77 v -17 h 64 V 139 H 101 v -17 h 231 v -18 h 77 V 87 H 319 V 70 H 229 V 52 H 549 V 35 H 485 V 17 H 357 V 0 h 14 v 17 h 192 v 18 h 51 V 52 H 243 v 18 h 77 v 17 h 166 v 17 H 384 v 18 H 128 v 17 h 282 v 18 h -13 v 17 h -39 v 17 h 39 v 18 H 282 v 17 h 140 v 17 h -38 v 18 h -51 v 17 h 102 v 18 h -64 v 17 h -38 v 17 h 128 v 18 h -51 v 17 H 294 v 18 h -25 v 17 h 115 z"
         fill="#061830"
         id="path9296" /><path
         d="M 293,400 H 255 V 383 H 101 V 365 H 281 V 348 H 396 V 330 H 165 v -17 h 90 V 296 H 421 V 278 H 178 v -17 h 77 v -18 h 13 V 226 H 153 V 209 H 319 V 191 H 204 v -17 h 128 v -17 0 -18 H 89 v -17 h 153 v -18 h 51 V 87 H 281 V 70 H 178 V 52 H 434 V 35 H 383 V 17 H 319 V 0 h 39 v 17 h 128 v 18 h 64 V 52 H 230 v 18 h 90 v 17 h 90 v 17 h -77 v 18 H 102 v 17 h 295 v 18 h -64 v 17 h -77 v 17 h 90 v 18 H 205 v 17 h 179 v 17 h -90 v 18 h -25 v 17 h 153 v 18 H 307 v 17 h -77 v 17 h 180 v 18 h -26 v 17 H 192 v 18 h 77 v 17 h 102 z"
         fill="#282550"
         id="path9298" /><path
         d="M 242,400 H 153 V 383 H 63 v -18 h 166 v -17 h 52 V 330 H 101 v -17 h 103 v -17 h 77 V 278 H 101 V 261 H 25 v -18 h 140 v -17 h -38 v -17 h 38 V 191 H 76 v -17 h 153 v -17 h 90 V 139 H 63 v -17 h 179 v -18 h 13 V 87 H 63 V 70 h 64 V 52 H 281 V 35 H 217 V 17 H 153 V 0 h 167 v 17 h 64 v 18 h 51 V 52 H 179 v 18 h 103 v 17 h 12 v 17 h -51 v 18 H 90 v 17 h 243 v 18 0 17 H 205 v 17 h 115 v 18 H 154 v 17 h 115 v 17 h -13 v 18 h -77 v 17 h 243 v 18 H 256 v 17 h -90 v 17 h 231 v 18 H 282 v 17 H 102 v 18 h 154 v 17 h 38 z"
         fill="#5a2c68"
         id="path9300" /><path
         d="M 165,400 H 76 V 383 H 37 v -18 h 141 v -17 h 26 V 330 H 63 v -17 h 51 v -17 h 26 V 278 H 0 v -17 h 12 v -18 h 102 v -17 h 13 V 209 H 63 V 191 H 25 v -17 h 140 v -17 h 90 V 139 H 12 v -17 h 153 v -18 h 64 V 87 H 50 V 70 H 89 V 52 H 204 V 35 35 17 H 76 V 0 h 78 v 17 h 64 v 18 h 64 V 52 H 128 V 70 H 64 v 17 h 192 v 17 h -13 v 18 H 64 v 17 h 256 v 18 h -90 v 17 H 77 v 17 h 89 v 18 h -38 v 17 h 38 v 17 H 26 v 18 h 76 v 17 h 180 v 18 h -77 v 17 H 102 v 17 h 180 v 18 h -52 v 17 H 64 v 18 h 90 v 17 h 89 z"
         fill="#912970"
         id="path9302" /><path
         d="m 0,400 v 0 -17 0 -18 0 -17 0 -18 0 -17 0 -17 0 -18 0 -17 0 -18 0 -17 0 -17 0 -18 0 -17 0 -17 0 -18 0 -17 0 -18 0 -17 0 -17 0 -18 0 -17 0 -18 0 -17 h 77 v 17 h 128 v 18 0 17 H 90 V 70 H 51 v 17 h 179 v 17 h -64 v 18 H 13 v 17 h 243 v 18 h -90 v 17 H 26 v 17 h 38 v 18 h 64 v 17 h -13 v 17 H 13 v 18 H 0 v 17 h 141 v 18 h -26 v 17 H 64 v 17 h 141 v 18 h -26 v 17 H 38 v 18 h 39 v 17 h 89 z"
         fill="#c62368"
         id="path9304" /></g></g></svg>
