<?xml version="1.0" encoding="UTF-8" standalone="no"?>
<svg
   width="338.66666mm"
   height="105.83334mm"
   version="1.1"
   viewBox="0 0 338.66666 105.83333"
   xml:space="preserve"
   id="svg14974"
   sodipodi:docname="about_header.svg"
   inkscape:version="1.2.2 (b0a8486541, 2022-12-01)"
   inkscape:export-filename="../assets/images/about/about_header.jpg"
   inkscape:export-xdpi="192"
   inkscape:export-ydpi="192"
   xmlns:inkscape="http://www.inkscape.org/namespaces/inkscape"
   xmlns:sodipodi="http://sodipodi.sourceforge.net/DTD/sodipodi-0.dtd"
   xmlns="http://www.w3.org/2000/svg"
   xmlns:svg="http://www.w3.org/2000/svg"><sodipodi:namedview
     id="namedview14976"
     pagecolor="#ffffff"
     bordercolor="#000000"
     borderopacity="0.25"
     inkscape:showpageshadow="2"
     inkscape:pageopacity="0.0"
     inkscape:pagecheckerboard="0"
     inkscape:deskcolor="#d1d1d1"
     inkscape:document-units="mm"
     showgrid="false"
     inkscape:zoom="0.71345422"
     inkscape:cx="730.95089"
     inkscape:cy="259.30185"
     inkscape:window-width="1920"
     inkscape:window-height="1019"
     inkscape:window-x="1920"
     inkscape:window-y="151"
     inkscape:window-maximized="1"
     inkscape:current-layer="svg14974" /><defs
     id="defs14940"><clipPath
       id="clipPath9726"><rect
         x="-493.73001"
         y="456.42001"
         width="92.877998"
         height="157.19"
         fill="none"
         opacity="0.87216"
         stroke="#000000"
         stroke-width="0.856"
         id="rect14934" /></clipPath><clipPath
       id="clipPath9730"><rect
         x="-493.73001"
         y="456.42001"
         width="92.877998"
         height="157.19"
         fill="none"
         opacity="0.87216"
         stroke="#000000"
         stroke-width="0.856"
         id="rect14937" /></clipPath></defs><g
     transform="scale(0.3762963,0.35277778)"
     id="g14966"><path
       d="m 827,300 h 63 v -14 h -81 v -13 h 45 v -14 h 18 v -14 h -45 v -13 h 63 v -14 h -36 v -13 h -45 v -14 h -9 v -14 h 63 v -13 h -9 v -28 h 36 V 109 H 800 V 95 h 45 V 82 H 809 V 68 h 54 V 55 h 9 V 41 H 800 V 27 h 63 V 14 H 845 V 0 h 55 v 300 z"
       fill="#ffffff"
       id="path14942" /><path
       d="m 764,300 h 117 v -14 h -99 v -13 h 18 v -14 h 18 v -14 h 9 v -13 h 54 v -14 h -63 v -13 h -36 v -14 h 9 v -14 h 18 v -13 h 9 v -14 h -18 v -14 h 45 V 123 H 827 V 109 H 746 V 95 h 72 V 82 H 746 V 68 h 72 V 55 h 27 V 41 H 764 V 27 h 36 V 14 h 36 V 0 h 10 v 14 h 18 v 13 h -63 v 14 h 72 v 14 h -9 v 13 h -54 v 14 h 36 v 13 h -45 v 14 h 90 v 27 h -36 v 28 h 9 v 13 h -63 v 14 h 9 v 14 h 45 v 13 h 36 v 14 h -63 v 13 h 45 v 14 h -18 v 14 h -45 v 13 h 81 v 14 h -63 z"
       fill="#bfc2c7"
       id="path14944" /><path
       d="m 710,300 h 126 v -14 h -63 v -13 h 18 v -14 h 9 v -27 h 54 v -14 h -99 v -13 h -27 v -14 h -18 v -14 h 63 v -13 h 27 v -14 h -72 v -14 h 81 V 109 H 737 V 95 h 63 V 82 H 683 V 68 h 45 V 55 H 836 V 41 H 683 V 27 h 63 V 14 h 81 V 0 h 10 v 14 h -36 v 13 h -36 v 14 h 81 v 14 h -27 v 13 h -72 v 14 h 72 v 13 h -72 v 14 h 81 v 14 h 18 v 13 h -45 v 14 h 18 v 14 h -9 v 13 h -18 v 14 h -9 v 14 h 36 v 13 h 63 v 14 h -54 v 13 h -9 v 14 h -18 v 14 h -18 v 13 h 99 v 14 H 765 Z"
       fill="#838892"
       id="path14946" /><path
       d="m 638,300 h 135 v -14 h -27 v -13 h 27 V 259 H 638 v -14 h 54 v -13 h -18 v -14 h 36 V 205 H 647 V 191 H 575 V 177 H 692 V 164 H 575 v -14 h 81 v -14 h -45 v -13 h 54 V 109 H 611 V 95 h 99 V 82 H 584 V 68 H 692 V 55 H 674 V 41 H 521 V 27 H 692 V 14 H 593 V 0 H 828 V 14 H 747 V 27 H 684 V 41 H 837 V 55 H 729 v 13 h -45 v 14 h 117 v 13 h -63 v 14 h 72 v 27 h -81 v 14 h 72 v 14 h -27 v 13 h -63 v 14 h 18 v 14 h 27 v 13 h 99 v 14 h -54 v 27 h -9 v 14 h -18 v 13 h 63 v 14 H 711 Z"
       fill="#4a5360"
       id="path14948" /><path
       d="m 476,300 h 189 v -14 h -81 v -13 h -18 v -14 h -45 v -14 h -54 v -13 h 90 v -14 h 72 V 205 H 449 V 191 H 314 v -14 h 126 v -13 h 45 V 150 H 359 v -14 h 198 v -13 h 54 V 109 H 494 V 95 H 449 V 82 H 368 V 68 h 72 V 55 h 9 V 41 H 422 V 27 H 359 V 14 h 99 V 0 h 136 v 14 h 99 V 27 H 522 v 14 h 153 v 14 h 18 V 68 H 585 v 14 h 126 v 13 h -99 v 14 h 54 v 14 h -54 v 13 h 45 v 14 h -81 v 14 h 117 v 13 H 576 v 14 h 72 v 14 h 63 v 13 h -36 v 14 h 18 v 13 h -54 v 14 h 135 v 14 h -27 v 13 h 27 v 14 H 639 Z"
       fill="#162333"
       id="path14950" /><path
       d="m 458,300 h 180 v -14 h -99 v -13 h -18 v -14 h -27 v -14 h -81 v -13 h 99 V 218 H 629 V 205 H 404 v -14 h -99 v -14 h 90 v -13 h 63 V 150 H 323 v -14 h 189 v -13 h 63 V 109 H 467 V 95 H 440 V 82 H 359 V 68 h 63 V 55 h 18 V 41 H 377 V 27 H 350 V 14 h 54 V 0 h 55 v 14 h -99 v 13 h 63 v 14 h 27 v 14 h -9 v 13 h -72 v 14 h 81 v 13 h 45 v 14 h 117 v 14 h -54 v 13 H 360 v 14 h 126 v 14 h -45 v 13 H 315 v 14 h 135 v 14 h 180 v 13 h -72 v 14 h -90 v 13 h 54 v 14 h 45 v 14 h 18 v 13 h 81 v 14 H 477 Z"
       fill="#001122"
       id="path14952" /><path
       d="M 422,300 H 602 V 286 H 485 v -13 h 9 V 259 H 368 V 245 H 323 V 232 H 440 V 218 H 566 V 205 H 359 v -14 h -81 v -14 h -9 V 164 H 422 V 150 H 251 v -14 h 117 v -13 h 72 V 109 H 368 V 95 h 18 V 82 H 305 V 68 h 63 V 55 H 314 V 41 h 18 V 27 H 260 V 14 h 90 V 0 h 55 v 14 h -54 v 13 h 27 v 14 h 63 v 14 h -18 v 13 h -63 v 14 h 81 v 13 h 27 v 14 h 108 v 14 h -63 v 13 H 324 v 14 h 135 v 14 h -63 v 13 h -90 v 14 h 99 v 14 h 225 v 13 H 513 v 14 h -99 v 13 h 81 v 14 h 27 v 14 h 18 v 13 h 99 v 14 H 459 Z"
       fill="#001122"
       id="path14954" /><path
       d="m 116,300 h 108 v -27 h -18 v -14 h 45 v -14 h -63 v -13 h 72 v -27 h -9 V 191 H 188 V 177 H 71 V 164 H 215 V 150 H 188 V 136 H 89 V 123 H 242 V 109 H 206 V 95 H 161 V 82 H 269 V 68 H 233 V 55 H 206 V 41 H 143 V 27 h 36 V 14 H 134 V 0 h 217 v 14 h -90 v 13 h 72 v 14 h -18 v 14 h 54 v 13 h -63 v 14 h 81 v 13 h -18 v 14 h 72 v 14 h -72 v 13 H 252 v 14 h 171 v 14 H 270 v 13 h 9 v 14 h 81 v 14 h 207 v 13 H 441 v 14 H 324 v 13 h 45 v 14 h 126 v 14 h -9 v 13 h 117 v 14 H 423 Z"
       fill="#162333"
       id="path14956" /><path
       d="m 89,300 h 72 v -14 h 36 v -13 h -72 v -14 h 36 v -14 h 18 v -27 h 45 V 205 H 98 V 191 H 53 V 177 H 26 v -13 h 36 v -14 h 54 V 136 H 62 V 123 H 89 V 95 h 54 V 82 h 54 V 68 H 152 V 55 H 134 V 27 h 9 V 14 H 107 V 0 h 28 v 14 h 45 v 13 h -36 v 14 h 63 v 14 h 27 v 13 h 36 V 82 H 162 v 13 h 45 v 14 h 36 v 14 H 90 v 13 h 99 v 14 h 27 v 14 H 72 v 13 h 117 v 14 h 63 v 14 h 9 v 27 h -72 v 13 h 63 v 14 h -45 v 14 h 18 v 27 H 117 Z"
       fill="#4a5360"
       id="path14958" /><path
       d="m 62,300 h 72 v -14 h 9 V 273 H 89 v -14 h 72 v -14 h 9 v -13 h 9 V 218 H 161 V 205 H 80 V 191 H 26 V 177 H 17 V 164 H 53 V 150 H 71 V 136 H 35 V 123 H 80 V 95 h 63 V 82 h -9 V 68 H 116 V 55 H 71 V 41 H 98 V 27 H 80 V 14 h 9 V 0 h 19 v 14 h 36 v 13 h -9 v 28 h 18 v 13 h 45 V 82 H 144 V 95 H 90 v 28 H 63 v 13 h 54 v 14 H 63 v 14 H 27 v 13 h 27 v 14 h 45 v 14 h 126 v 13 h -45 v 27 h -18 v 14 h -36 v 14 h 72 v 13 h -36 v 14 H 90 Z"
       fill="#838892"
       id="path14960" /><path
       d="M 35,300 H 71 V 273 H 53 v -14 h 27 v -14 h -9 v -13 h 9 V 205 H 62 V 191 H 8 V 164 H 44 V 150 H 62 V 136 H 17 V 123 H 35 V 109 H 17 V 95 H 62 V 68 H 26 V 41 H 44 V 27 H 71 V 14 H 8 V 0 H 90 V 14 H 81 V 27 H 99 V 41 H 72 v 14 h 45 v 13 h 18 v 14 h 9 V 95 H 81 v 28 H 36 v 13 h 36 v 14 H 54 v 14 H 18 v 13 h 9 v 14 h 54 v 14 h 81 v 13 h 18 v 14 h -9 v 13 h -9 v 14 H 90 v 14 h 54 v 13 h -9 v 14 H 63 Z"
       fill="#bfc2c7"
       id="path14962" /><path
       d="M 0,300 V 0 H 9 V 14 H 72 V 27 H 45 V 41 H 27 V 68 H 63 V 95 H 18 v 14 h 18 v 14 H 18 v 13 h 45 v 14 H 45 v 14 H 9 v 27 h 54 v 14 h 18 v 27 h -9 v 13 h 9 v 14 H 54 v 14 h 18 v 27 H 36 Z"
       fill="#ffffff"
       id="path14964" /></g></svg>
